<svg xmlns="http://www.w3.org/2000/svg" xmlns:xlink="http://www.w3.org/1999/xlink" viewBox="0 0 143.85 144"><defs><style>.cls-1{opacity:0.1;fill:url(#New_Gradient_Swatch_9);}</style><linearGradient id="New_Gradient_Swatch_9" x1="21.07" y1="21.07" x2="122.79" y2="122.79" gradientUnits="userSpaceOnUse"><stop offset="0" stop-color="#bab2aa"/><stop offset="1" stop-color="#a0968c"/></linearGradient></defs><title>abstract-circle</title><g id="Layer_2" data-name="Layer 2"><g id="Layer_1-2" data-name="Layer 1"><path class="cls-1" d="M135.39,45.66h0v0h0L122.84,21.14a.28.28,0,0,0-.12-.12L98.23,8.48h0L72,0a.28.28,0,0,0-.17,0L45.66,8.46h0L21.14,21a.28.28,0,0,0-.12.12L8.48,45.62h0L0,71.84A.28.28,0,0,0,0,72L8.46,98.19h0v0h0L21,122.72a.28.28,0,0,0,.12.12L45.47,135.3a.28.28,0,0,0,.19.24L71.84,144H72l26.18-8.45a.28.28,0,0,0,.19-.24l24.33-12.46a.28.28,0,0,0,.12-.12l12.54-24.49h0L143.84,72a.28.28,0,0,0,0-.17ZM116.27,89.21l-.33.39-7.33-16.44-.42-.95h22.68ZM26.87,55.47l1-1.21,7.74,17.37v0H13Zm3.58,58.34,9.39-9.39,6.65-6.65,6.81,17.78Zm23.28-85,4.87,11.75L64.36,54.4l-7.59,2-4.61-4.61-5.23-5.23,1.94-5.07Zm59.66,1.29L104,39.44l-6.65,6.65L90.55,28.31Zm-25.91,57,2-7.59,4.73,2,2.39,1,.17,6.47.2,7.63-7.71-7.71ZM89.68,79l4-6.76H107L96.8,81.92l-2.39-1Zm.25-13.66,16.31,6.33H93.65ZM89,64.82l0,0s0,0,0,0l4.14,7L89,79v0l0,0-2,7.9L79,89l0,0h0l-7,4.14-7-4.14h0l0,0-7.9-2-2-7.9,0,0s0,0,0,0l-4.14-7,4.14-7v0l0,0,2-7.9,7.9-2,0,0h0l7-4.14,7,4.14h0l0,0,7.9,2ZM56.77,87.49l7.59,2-2,4.73-1,2.39-6.47.17L47.3,97,55,89.25Zm8.12,2.19,6.76,4V107L61.93,96.8l1-2.39Zm13.66.25-6.33,16.31V93.65ZM47,97.53l14.47-.38,10,10.5-17.56,7.83L48.4,101.17ZM42.68,48.4,46.32,47l.38,14.47-10.5,10L28.37,53.89Zm13.68,8.37-2,7.59-4.73-2-2.39-1-.17-6.47-.2-7.63L54.61,55Zm-2.19,8.12-4,6.76H36.82l10.23-9.71,2.39,1Zm-.25,13.66L37.62,72.21H50.2Zm27-29.1-2,4.73-6.76-4V36.82l9.71,10.24ZM65.31,53.93l6.33-16.31V50.2Zm21.78,2.43-7.59-2,2-4.73,1-2.39,6.47-.17,7.63-.2-7.71,7.71Zm17.33-16.52,9.39-9.39,1.74,22.85L97.77,46.49Zm-7.57,6.48-14.47.38-10-10.5L90,28.37l5.49,14.31Zm-50.76.16L28.31,53.3l1.74-22.85,9.39,9.39Zm8.31,33,2,7.59L51.76,91.7l-5.23,5.23-5.11-2L28.76,90.12l11.88-4.92ZM46.08,97.37,39.44,104l-9.39,9.39L28.31,90.55ZM79.5,89.46l7.59-2L91.7,92.1l5.23,5.23-2,5.11L90.12,115.1l-4.92-11.88Zm18,7.39-.38-14.47,10.5-10L115.48,90l-14.31,5.49ZM89.46,64.36l-2-7.59,4.61-4.61,5.23-5.23,5.07,1.94,12.7,4.87-11.75,4.87ZM71.64,13V36.05l-6.9,17.78L56,32.68l-1.91-4.61,1.68-1.44ZM46.49,46.08l-6.65-6.65-9.39-9.39L53.3,28.31ZM13,72.21H36l17.78,6.9L32.72,87.86l-4.64,1.92-1.74-2Zm41.27,43.73,17.06-7.6.33-.15v22.68l-17-14.59Zm18,14.92V107.8L79.12,90l8.75,21.11,1.92,4.64-2.27,1.95Zm18.34-15.32,6.81-17.78,6.65,6.65,9.39,9.39Zm7.22-18.18,17.78-6.81L113.8,113.4,104.42,104Zm33.1-25.73H107.8L90,64.74,111.17,56l4.61-1.91,1.71,2ZM98.17,9.3l15.26,20.19L90.54,27.74,97.91,9.92ZM89.6,27.91,72.9,35.36l-.68.31V13L88.39,26.87ZM9.3,45.68,29.48,30.42,27.74,53.32,9.92,45.94Zm3.27,26.91L27.67,90.2l0,0,1.77,23.19L9,98Zm33.12,62L30.42,114.37l22.89,1.75-7.38,17.81Zm.78-.41,7.38-17.81,17.42,15-25.06,3.49Zm43.78-18,23.19-1.77L98,134.82l-25.39-3.53Zm44.32-18-20.19,15.26,1.75-22.89,17.81,7.38ZM116.23,53.71l-.08-.1-1.77-23.19,20.45,15.45-3.53,25.39ZM97.65,9.08l-.26.62L90,27.52l-17.42-15,6.71-.93ZM71.26,12.57,54,27.4l-.37.32L30.42,29.48,45.88,9,69.39,12.3ZM9.08,46.21l.62.26,17.81,7.38-15,17.42-.4-2.89ZM134.77,97.65l-.63-.26L116.34,90l15-17.42,2.06,14.84Zm-12.4-76.17L134.3,44.77,123.62,36.7l-9.38-7.09L99.08,9.55ZM71.93.58l24.9,8L77,11.37l-5.11.71-2.73-.38L47,8.62ZM21.48,21.48,44.77,9.55,36.7,20.24l-7.09,9.38L9.55,44.78ZM8.62,47l3.33,23.92.14,1L8.62,96.83l-8-24.9Zm12.86,75.35L9.55,99.08l10.68,8.08,9.38,7.09,15.17,20.06Zm50.45,21-24.9-8,24.9-3.46,24.91,3.46Zm50.45-21L99.08,134.3l8.08-10.68,7.09-9.38L134.3,99.08Zm12.86-25.54-1.44-10.38-2-14.52,2-14.68L135.23,47l8,24.91Z"/></g></g></svg>