<svg xmlns="http://www.w3.org/2000/svg" xmlns:xlink="http://www.w3.org/1999/xlink" viewBox="0 0 360 360"><defs><style>.cls-1{fill:#121921;}.cls-2{fill:#fff;}.cls-3{fill:url(#New_Gradient_Swatch_17);}.cls-4{fill:url(#linear-gradient);}.cls-5{fill:url(#New_Gradient_Swatch_16);}</style><linearGradient id="New_Gradient_Swatch_17" x1="303.75" y1="39.38" x2="332.67" y2="39.38" gradientUnits="userSpaceOnUse"><stop offset="0" stop-color="#f05225" stop-opacity="0"/><stop offset="1" stop-color="#f05225"/></linearGradient><linearGradient id="linear-gradient" x1="309.21" y1="39.38" x2="328.8" y2="39.38" gradientUnits="userSpaceOnUse"><stop offset="0" stop-color="#f05225"/><stop offset="1" stop-color="#f05225" stop-opacity="0"/></linearGradient><linearGradient id="New_Gradient_Swatch_16" x1="68.01" y1="68.01" x2="291.99" y2="291.99" gradientUnits="userSpaceOnUse"><stop offset="0" stop-color="#f8a27b"/><stop offset="1" stop-color="#f05225"/></linearGradient></defs><title>backastage-cover-art</title><g id="Layer_2" data-name="Layer 2"><g id="Layer_1-2" data-name="Layer 1"><rect class="cls-1" width="360" height="360"/><path class="cls-2" d="M323.31,37.48a3.25,3.25,0,1,0-2.61,5.22,3.34,3.34,0,0,0,2.65-1.44L325,42.79a5.5,5.5,0,1,1-4.26-8.88,5.4,5.4,0,0,1,4.22,2Z"/><path class="cls-3" d="M320.61,56.25h-.33a16.75,16.75,0,0,1-12.07-5.41,16.93,16.93,0,0,1,0-22.92,16.88,16.88,0,0,1,24.32-.47.46.46,0,0,1-.64.64,16,16,0,0,0-23,.45,16,16,0,0,0,0,21.68,16,16,0,0,0,23,.45.46.46,0,0,1,.64.64A16.73,16.73,0,0,1,320.61,56.25Z"/><path class="cls-4" d="M320.6,50.78h-.39a11.4,11.4,0,0,1,0-22.79,11.45,11.45,0,0,1,8.46,3.33A.46.46,0,1,1,328,32a10.54,10.54,0,0,0-7.78-3.07,10.49,10.49,0,0,0,0,21A10.54,10.54,0,0,0,328,46.79a.46.46,0,0,1,.64.64A11.45,11.45,0,0,1,320.6,50.78Z"/><path class="cls-5" d="M338.38,157.5,307.9,127V83.92H276.08V52.1H233L202.5,21.62,180,44.12l-22.5-22.5L127,52.1H83.92V83.92H52.1V127L21.62,157.5,44.12,180l-22.5,22.5L52.1,233v43.1H83.92V307.9H127l30.48,30.48,22.5-22.5,22.5,22.5L233,307.9h43.1V276.08H307.9V233l30.48-30.48L315.88,180ZM52.1,231.21,23.38,202.5,45,180.88l7.1,7.1Zm0-45L45.88,180l6.21-6.21Zm0-14.19-7.1,7.1L23.38,157.5,52.1,128.79ZM83.92,274.83H53.35v-40.6L83.92,264.8Zm0-11.8L53.35,232.46V189.23L83.92,219.8Zm0-60-8-8,8-8Zm0-30-8-8,8-8Zm0-17.83-9.8,9.8,9.8,9.8v10.4l-9.8,9.8,9.8,9.8V218L53.35,187.46V172.54L83.92,142Zm0-15L53.35,170.77V127.54L83.92,97Zm0-45L53.35,125.77V85.17H83.92ZM263,83.92H219.8L189.23,53.35h43.23Zm-20,25v6.84h-6.4l-20-20h13.23ZM231.66,95.77H243v11.36Zm-1.77,168.45H216.66l20-20H243v6.84ZM243,252.87v11.36H231.66ZM117,251.1v-6.84h6.4l20,20H130.11Zm11.36,13.13H117V252.87Zm57.37,10.61L180.88,270l4.52-4.52h28.23l-9.36,9.36ZM203,276.08l-8,8-8-8Zm-47.31-1.25-9.36-9.36h28.23l4.52,4.52-4.83,4.83ZM173,276.08l-8,8-8-8Zm3.33-10.61h7.28L180,269.12Zm3.64,5.41,4,4H176Zm6.66-6.66,20-20h28.23l-20,20Zm-1.77,0h-9.78l-20-20h49.7Zm-11.55,0H145.11l-20-20h28.23ZM123.9,243,117,236.1V207.87L152.13,243Zm-1.77,0H117v-5.15Zm22.46,22.46,9.36,9.36H140.72l-9.36-9.36Zm10.61,10.61,9.8,9.8,9.8-9.8h10.4l9.8,9.8,9.8-9.8H218l-30.57,30.57H172.54L142,276.08ZM206,274.83l9.36-9.36h13.23l-9.36,9.36ZM237.87,243l5.15-5.15V243Zm-1.77,0H207.87L243,207.87V236.1Zm-30,0H153.9L117,206.1V153.9L153.9,117h52.2L243,153.9v52.2Zm-76-147.24h13.23l-20,20H117V108.9ZM117,107.13V95.77h11.36Zm57.3-22L179.12,90l-4.52,4.52H146.36l9.36-9.36ZM157,83.92l8-8,8,8ZM176,85.17H184l-4,4Zm7.59,9.36h-7.28L180,90.88Zm-10.3,1.25-20,20H125.15l20-20Zm1.77,0h9.78l20,20h-49.7Zm11.55,0h28.23l20,20H206.62Zm-1.25-1.25L180.88,90l4.83-4.83h18.56l9.36,9.36ZM187,83.92l8-8,8,8Zm8-9.8-9.8,9.8H174.8l-9.8-9.8-9.8,9.8H142l30.57-30.57h14.92L218,83.92H204.8Zm-41,11-9.36,9.36H131.36l9.36-9.36ZM122.13,117,117,122.13V117Zm1.77,0h28.23L117,152.13V123.9Zm84,0H236.1L243,123.9v28.23Zm30,0H243v5.15ZM215.41,94.52,206,85.17h13.23l9.36,9.36ZM202.5,23.38,231.21,52.1H188l-7.1-7.1ZM186.21,52.1H173.79L180,45.88ZM157.5,23.38,179.12,45,172,52.1H128.79Zm-30,30h43.23L140.2,83.92H97Zm-42.37,0h40.6L95.2,83.92h-10Zm0,31.82H94L85.17,94Zm0,10.55L95.72,85.17H139l-9.36,9.36H115.74v13.86l-7.35,7.35H94.52v13.86L85.17,139ZM108.9,243,95.77,229.89V216.66l20,20V243Zm6.84,1.25v5.59l-5.59-5.59Zm-8.6-1.25H95.77V231.66ZM95.77,214.89V186.66l20,20v28.23Zm0-30v-9.78l20-20v49.7Zm0-11.54V145.11l20-20v28.23Zm0-30V130.11L108.9,117h6.84v6.4Zm0-15V117h11.36Zm14.38-12.61,5.59-5.59v5.59Zm-25,25,9.36-9.36v13.23L85.17,154Zm0,15,9.36-9.36v28.23L90,179.12l-4.83-4.83Zm9.36,20.64v7.28L90.88,180ZM85.17,176l4,4-4,4Zm0,9.67L90,180.88l4.52,4.52v28.23l-9.36-9.36Zm0,20.33,9.36,9.36v13.23l-9.36-9.36Zm0,15,9.36,9.36v13.86h13.86l7.35,7.35v13.86h13.86l9.36,9.36H95.72L85.17,264.28Zm0,45L94,274.83H85.17Zm0,40.6V276.08h10l30.57,30.57ZM97,276.08H140.2l30.57,30.57H127.54Zm60.53,60.53L128.79,307.9H172l7.1,7.1Zm16.29-28.71h12.42L180,314.12Zm28.71,28.71L180.88,315l7.1-7.1h43.23Zm30-30H189.23l30.57-30.57H263Zm42.37,0h-40.6l30.57-30.57h10Zm0-31.82H266l8.78-8.78Zm0-10.55-10.55,10.55H221l9.36-9.36h13.86V251.62l7.35-7.35h13.86V230.41l9.36-9.36ZM251.1,117l13.13,13.13v13.23l-20-20V117Zm-6.84-1.25v-5.59l5.59,5.59Zm8.6,1.25h11.36v11.36Zm11.36,28.13v28.23l-20-20V125.15Zm0,30v9.78l-20,20v-49.7Zm0,11.54v28.23l-20,20V206.62Zm0,30v13.23L251.1,243h-6.84v-6.4Zm0,15V243H252.87Zm-14.38,12.61-5.59,5.59v-5.59Zm25-25-9.36,9.36V215.41l9.36-9.36Zm0-15-9.36,9.36V185.41l4.52-4.52,4.83,4.83Zm-9.36-20.64v-7.28l3.64,3.64Zm9.36.31-4-4,4-4Zm0-9.67L270,179.12l-4.52-4.52V146.36l9.36,9.36Zm0-20.33-9.36-9.36V131.36l9.36,9.36Zm0-15-9.36-9.36V115.73H251.62l-7.35-7.35V94.52H230.41L221,85.17h43.23l10.55,10.55Zm0-45L266,85.17h8.78Zm0-10h-10L234.23,53.35h40.6ZM276.08,157l8,8-8,8Zm0,30,8,8-8,8Zm30.57,87.87H276.08v-10l30.57-30.57Zm0-42.37L276.08,263V219.8l30.57-30.57Zm0-45L276.08,218V204.8l9.8-9.8-9.8-9.8V174.8l9.8-9.8-9.8-9.8V142l30.57,30.57Zm0-16.69L276.08,140.2V97l30.57,30.57Zm0-45L276.08,95.2v-10h30.57Zm1.25,3,28.71,28.71L315,179.12l-7.1-7.1Zm0,45,6.21,6.21-6.21,6.21Zm28.71,28.71L307.9,231.21V188l7.1-7.1ZM223.05,162.17V147.55H212.45V136.95H197.83L187.5,126.62l-7.5,7.5-7.5-7.5-10.33,10.33H147.55v10.61H136.95v14.61L126.62,172.5l7.5,7.5-7.5,7.5,10.33,10.33v14.61h10.61v10.61h14.61l10.33,10.33,7.5-7.5,7.5,7.5,10.33-10.33h14.61V212.45h10.61V197.83l10.33-10.33-7.5-7.5,7.5-7.5Zm-86.1,33.9-8.57-8.57,6.62-6.62,1.95,1.95Zm0-15L135.88,180l1.07-1.07Zm0-3.9L135,179.12l-6.62-6.62,8.57-8.57Zm10.61,34H138.2V199.08l9.36,9.36Zm0-4.52-9.36-9.36V184.08l9.36,9.36Zm0-15-9.36-9.36v-4.63l9.36-9.36Zm0-25.11-9.36,9.36V162.68l9.36-9.36Zm0-15-9.36,9.36V148.8h9.36Zm59.12-4H193.44l-9.36-9.36h13.23Zm-15,0H168.33l9.36-9.36h4.63Zm-4.17-19.17,8.56,8.56H182.83L180.88,135Zm-6.44,8.56h-2.13l1.06-1.06Zm-8.56-8.56,6.62,6.62-1.95,1.95H163.94Zm-9.81,9.81h13.23l-9.36,9.36H153.33Zm-13.88,0h12.11l-9.36,9.36H148.8Zm0,10.61h1.51l-1.51,1.51Zm0,3.27,3.27-3.27h13.23L148.8,165.31Zm0,42.61,16.51,16.51H152.08l-3.27-3.27Zm0,15,1.51,1.51H148.8Zm0,12.11v-9.36h2.76l9.36,9.36Zm4.52-9.36h13.23l9.36,9.36H162.69Zm15,0h23.34l-9.36,9.36h-4.63Zm4.17,19.17-8.56-8.56h13.23l1.95,1.95Zm6.44-8.56h2.13L180,224.12Zm8.56,8.56L180.88,225l1.95-1.95h13.23Zm9.81-9.81H184.08l9.36-9.36h13.23Zm13.88,0H199.08l9.36-9.36h2.76Zm0-10.61h-1.51l1.51-1.51Zm0-3.27-3.27,3.27H194.69l16.51-16.51Zm0-15L192.92,211.2H167.08L148.8,192.92V167.08l18.27-18.27h25.84l18.27,18.27Zm0-27.61L194.69,148.8h13.23l3.27,3.27Zm0-15-1.51-1.51h1.51Zm0-2.76h-2.76l-9.36-9.36H211.2ZM221.8,211.2h-9.36v-2.76l9.36-9.36Zm0-13.88-9.36,9.36V193.44l9.36-9.36Zm0-15-9.36,9.36V168.33l9.36,9.36Zm0-6.4-9.36-9.36V153.33l9.36,9.36Zm0-15-9.36-9.36V148.8h9.36Zm1.25,18,1.07,1.07-1.07,1.07Zm8.57,8.57-8.57,8.57V182.83l1.95-1.95ZM225,179.12l-1.95-1.95V163.93l8.57,8.57Z"/><rect class="cls-1" y="135" width="360" height="90"/><path class="cls-2" d="M70,163.67c6.32,0,9.79,2.85,9.79,8.5,0,3.37-1.42,6.08-3.56,7.13,2.8,1,4.42,3.61,4.42,7.74,0,4.94-2.71,9.41-9.79,9.41H61V163.67Zm-3.42,13.4h3.51c3,0,4.18-1.85,4.18-4.56s-.81-4.08-4.75-4.08H66.55Zm0,14.63h3.85c3.28,0,4.7-1.8,4.7-4.94,0-3.47-1.57-4.94-5.22-4.94H66.55Z"/><path class="cls-2" d="M86.92,196.44l9.17-32.78h5.42l9.21,32.78h-5.84l-1.71-6.79H94.38l-1.66,6.79Zm8.69-11.54H102L98.85,172Z"/><path class="cls-2" d="M132,173.83c-.52-4-1.95-5.79-4.56-5.79-3.23,0-4.8,2.85-4.8,9.93v4.18c0,7,1.57,9.93,4.8,9.93,2.71,0,4-1.8,4.56-5.79h5.23c-1,7.36-4.32,10.59-9.79,10.59-6.08,0-10.31-4.42-10.31-14.73V178c0-10.31,4.23-14.73,10.31-14.73,5.27,0,8.88,3.47,9.79,10.59Z"/><path class="cls-2" d="M162,196.44l-6.79-14.58L151.71,188v8.41H146.2V163.67h5.51v15.44l8.6-15.44h6.18l-7.55,13.11,9.21,19.67Z"/><path class="cls-2" d="M189.52,171.55c-1.19-2.23-2.57-3.52-5.18-3.52s-3.89,1.52-3.89,4.27c0,3.14,1.71,4.37,5.27,5.37,5.6,1.57,8.17,4.13,8.17,9.79,0,4.89-2.95,9.41-9.31,9.41-4.66,0-8-1.71-10.31-5.37l4.23-2.94c1.57,2.33,2.95,3.51,5.75,3.51,3.18,0,4.13-2,4.13-4.37,0-2.61-1-4.23-5.42-5.46-5.18-1.47-8-4.37-8-9.93,0-4.94,2.85-9.07,9.26-9.07,4.28,0,7.41,1.71,9.41,5.37Z"/><path class="cls-2" d="M220.35,163.67v4.8H213v28h-5.51v-28h-7.36v-4.8Z"/><path class="cls-2" d="M224,196.44l9.17-32.78h5.42l9.22,32.78H242l-1.71-6.79h-8.79l-1.66,6.79Zm8.69-11.54h6.37L235.93,172Z"/><path class="cls-2" d="M274.26,179.63v2.52c0,10.59-3.8,14.73-9.83,14.73s-10.31-4.42-10.31-14.73V178.2c0-10.54,4.23-15,10.31-15,5.56,0,9,3.71,9.79,10.59H269c-.47-3.8-1.85-5.79-4.56-5.79-3.23,0-4.8,2.85-4.8,9.93v4.18c0,7.08,1.57,9.93,4.8,9.93,3,0,4.37-2.37,4.56-7.65h-4.46v-4.8Z"/><path class="cls-2" d="M300.67,163.67v4.8H289.51v8.65h10v4.75h-10v9.83h11.16v4.75H284V163.67Z"/></g></g></svg>