<svg xmlns="http://www.w3.org/2000/svg" xmlns:xlink="http://www.w3.org/1999/xlink" viewBox="0 0 181.5 57"><defs><style>.cls-1{fill:#fff;}.cls-2,.cls-3{fill:none;stroke-linecap:round;stroke-linejoin:round;stroke-width:3px;}.cls-2{stroke:url(#linear-gradient);}.cls-3{stroke:url(#New_Gradient_Swatch_8);}</style><linearGradient id="linear-gradient" y1="28.5" x2="49.05" y2="28.5" gradientUnits="userSpaceOnUse"><stop offset="0" stop-color="#61c192" stop-opacity="0"/><stop offset="1" stop-color="#61c192"/></linearGradient><linearGradient id="New_Gradient_Swatch_8" x1="8.98" y1="28.5" x2="42.69" y2="28.5" gradientUnits="userSpaceOnUse"><stop offset="0" stop-color="#61c192"/><stop offset="1" stop-color="#61c192" stop-opacity="0"/></linearGradient></defs><title>changelog-logo</title><g id="Layer_2" data-name="Layer 2"><g id="headers"><path class="cls-1" d="M126.64,23.2H120v3.38h5.89v3.67H120v3.59h6.86v3.7H116.06v-18h10.58Z"/><path class="cls-1" d="M33,25.26c-1.59-1.81-2.81-2.46-4.54-2.46a5.74,5.74,0,0,0,0,11.48c1.73,0,3-.67,4.59-2.48l2.83,2.65C33.56,36.95,31.37,38,28.54,38a9.47,9.47,0,1,1,0-18.93c2.81,0,5,1,7.29,3.51Z"/><path class="cls-1" d="M42.52,26.58H49.2v-7h4v18h-4V30.28H42.52v7.26h-4v-18h4Z"/><path class="cls-1" d="M61.23,33.57l-1.38,4H55.64l6.72-18H67l6.72,18H69.44l-1.38-4Zm3.4-9.77-2.11,6.08h4.24Z"/><path class="cls-1" d="M76.13,19.53h3.35l8.32,10.94V19.53h4v18H88.44L80.12,26.61V37.54h-4Z"/><path class="cls-1" d="M113,27.28v1.86A9.83,9.83,0,0,1,111.79,34a8.2,8.2,0,0,1-7.34,4,9.47,9.47,0,1,1,0-18.93c2.78,0,4.83.94,7.4,3.35L109,25.07c-1.7-1.67-2.86-2.27-4.59-2.27a5.74,5.74,0,0,0,0,11.48,4.19,4.19,0,0,0,4.37-3.35H104V27.28Z"/><path class="cls-1" d="M134.23,19.53V33.84h6.85v3.7H130.23v-18Z"/><path class="cls-1" d="M161.14,28.55a9.6,9.6,0,1,1-9.61-9.48A9.58,9.58,0,0,1,161.14,28.55ZM146,28.63a5.58,5.58,0,1,0,5.54-5.83A5.63,5.63,0,0,0,146,28.63Z"/><path class="cls-1" d="M181.5,27.28v1.86A9.83,9.83,0,0,1,180.34,34,8.2,8.2,0,0,1,173,38a9.47,9.47,0,1,1,0-18.93c2.78,0,4.83.94,7.4,3.35l-2.84,2.65c-1.7-1.67-2.86-2.27-4.59-2.27a5.74,5.74,0,0,0,0,11.48,4.19,4.19,0,0,0,4.37-3.35h-4.81V27.28Z"/><path class="cls-2" d="M47.55,47.59a27,27,0,1,1,0-38.18"/><path class="cls-3" d="M41.19,41.23a18,18,0,1,1,0-25.46"/></g></g></svg>