<svg xmlns="http://www.w3.org/2000/svg" xmlns:xlink="http://www.w3.org/1999/xlink" viewBox="0 0 101.05 117.93"><defs><style>.cls-1{fill:#fff;}.cls-2{fill:url(#linear-gradient);}.cls-3{fill:url(#New_Gradient_Swatch_8);}</style><linearGradient id="linear-gradient" y1="58.96" x2="101.05" y2="58.96" gradientUnits="userSpaceOnUse"><stop offset="0" stop-color="#61c192" stop-opacity="0"/><stop offset="1" stop-color="#61c192"/></linearGradient><linearGradient id="New_Gradient_Swatch_8" x1="19.07" y1="58.96" x2="87.53" y2="58.96" gradientUnits="userSpaceOnUse"><stop offset="0" stop-color="#61c192"/><stop offset="1" stop-color="#61c192" stop-opacity="0"/></linearGradient></defs><title>changelog-mark-only</title><g id="Layer_2" data-name="Layer 2"><g id="menu"><path class="cls-1" d="M68.33,52.33c-3.22-3.66-5.67-5-9.17-5a11.6,11.6,0,0,0,.05,23.19c3.49,0,6-1.36,9.28-5l5.73,5.35c-4.75,5.07-9.17,7.2-14.89,7.2a19.13,19.13,0,1,1,0-38.25c5.67,0,10,2.07,14.73,7.09Z"/><path class="cls-2" d="M58.92,117.93H57.77A58.53,58.53,0,0,1,15.61,99a59.16,59.16,0,0,1,0-80.08,59,59,0,0,1,85-1.65,1.59,1.59,0,0,1-2.25,2.25,55.78,55.78,0,0,0-80.39,1.57,56,56,0,0,0,0,75.74A55.78,55.78,0,0,0,98.33,98.4a1.59,1.59,0,1,1,2.25,2.25A58.45,58.45,0,0,1,58.92,117.93Z"/><path class="cls-3" d="M58.87,98.8l-1.36,0A39.84,39.84,0,0,1,28.8,32.86,39.53,39.53,0,0,1,57.51,19.15,40,40,0,0,1,87.06,30.79,1.59,1.59,0,1,1,84.81,33,36.76,36.76,0,0,0,57.62,22.33a36.65,36.65,0,0,0,0,73.26A36.81,36.81,0,0,0,84.81,84.88a1.59,1.59,0,1,1,2.25,2.25A40,40,0,0,1,58.87,98.8Z"/></g></g></svg>