<svg xmlns="http://www.w3.org/2000/svg" viewBox="0 0 126.51 20"><defs><style>.cls-1{opacity:0.5;}.cls-2,.cls-3{fill:#fff;}.cls-2{fill-rule:evenodd;}</style></defs><title>digital-ocean-logo</title><g id="Layer_2" data-name="Layer 2"><g id="Layer_1-2" data-name="Layer 1"><g class="cls-1"><path class="cls-2" d="M2.18,19.16C8.69,15,16.07,18,19.75,20,14.66,18,7.19,17.52,2.18,19.16Z"/><path class="cls-2" d="M13.61,0a7.7,7.7,0,0,1,7,4.49H18.19A5.94,5.94,0,0,0,9,4.43l.18-.14c2.56-1.83,6,.19,6,.19s-3.24-.94-5.43.6S7.91,9.69,7.91,9.69l0-.11,0,.11A3.73,3.73,0,0,0,6,9,7.54,7.54,0,0,1,5.92,7.6,7.65,7.65,0,0,1,13.61,0ZM3.77,17.38v-.66a11.43,11.43,0,0,1,10.28-2c6.84,2.14,11.2,5.06,16.49,3.75s5.76-4.2,5.76-4.2-.93,4.08-6.14,5-10-.11-16.12-2.38a14.07,14.07,0,0,0-10.27.57Zm0-1.32a11.74,11.74,0,0,1,1.12-.68A2.92,2.92,0,0,1,4.41,15a3.4,3.4,0,0,1-.64-.87v1.41l0,0,.21.18-.25-.13v.43Zm0-6.59V7.06a5.65,5.65,0,0,1,1.58-.3A8.21,8.21,0,0,0,5.42,9,3.62,3.62,0,0,0,3.77,9.48Zm0-2.42V9.48a3.54,3.54,0,0,0,0,6.16v.43c-.43.29-.85.6-1.2.87a5.51,5.51,0,0,1,1.2-9.88Zm0,7.08a5.16,5.16,0,0,1-.45-2.84S2.16,14,3.77,15.55V14.13Zm0,2.59a12.18,12.18,0,0,0-1.65,1.44s.62-.34,1.65-.78Z"/><path class="cls-2" d="M21,15.69a13.6,13.6,0,0,0,6.34,1.4c3.07-.27,4-1.36,4-1.36a4.85,4.85,0,0,1-4.08,2.2C24.29,18,21,15.76,21,15.69Z"/><rect class="cls-3" x="18.48" y="5.12" width="2.75" height="2.75"/><rect class="cls-3" x="29.38" y="12.73" width="2.12" height="2.12"/><rect class="cls-3" x="21.79" y="2.61" width="3.66" height="3.66"/><rect class="cls-3" x="32.42" y="8.94" width="3.66" height="3.66"/><rect class="cls-3" x="25.8" y="6.55" width="2.04" height="2.04"/><rect class="cls-3" x="27.17" y="10.57" width="2.04" height="2.04"/><rect class="cls-3" x="22.87" y="10.77" width="2.04" height="2.04"/><rect class="cls-3" x="30.02" y="6.62" width="2.04" height="2.04"/><path class="cls-3" d="M52.69,10.71a6.32,6.32,0,0,1-.43,2.36,5.29,5.29,0,0,1-3.07,3.05,6.55,6.55,0,0,1-2.41.43H42.32V4.87h4.46a6.5,6.5,0,0,1,2.41.43,5.46,5.46,0,0,1,1.87,1.2,5.38,5.38,0,0,1,1.2,1.85A6.32,6.32,0,0,1,52.69,10.71Zm-2.22,0A5.36,5.36,0,0,0,50.21,9a3.66,3.66,0,0,0-.73-1.29,3.17,3.17,0,0,0-1.16-.81,4,4,0,0,0-1.54-.28H44.51v8.22h2.27a4,4,0,0,0,1.54-.28,3.17,3.17,0,0,0,1.16-.81,3.66,3.66,0,0,0,.73-1.29A5.36,5.36,0,0,0,50.47,10.71Z"/><path class="cls-3" d="M55.89,5.84a1.14,1.14,0,0,1-.1.48A1.32,1.32,0,0,1,55.1,7a1.25,1.25,0,0,1-.5.1,1.2,1.2,0,0,1-.49-.1,1.29,1.29,0,0,1-.4-.27,1.31,1.31,0,0,1-.27-.4,1.17,1.17,0,0,1-.1-.48,1.25,1.25,0,0,1,.1-.5,1.28,1.28,0,0,1,.27-.4,1.3,1.3,0,0,1,.4-.27,1.2,1.2,0,0,1,.49-.1,1.25,1.25,0,0,1,.5.1,1.34,1.34,0,0,1,.41.27,1.31,1.31,0,0,1,.28.4A1.21,1.21,0,0,1,55.89,5.84Zm-.3,2.41v8.29h-2V8.26Z"/><path class="cls-3" d="M59.91,8.11a4.41,4.41,0,0,1,1,.11,3.41,3.41,0,0,1,.86.32h2.38v.74a.41.41,0,0,1-.1.29.57.57,0,0,1-.33.15L63,9.86a2.58,2.58,0,0,1,.13.44,2.66,2.66,0,0,1,0,.49,2.44,2.44,0,0,1-.92,2,3.15,3.15,0,0,1-1,.54,4.21,4.21,0,0,1-1.29.19,4.63,4.63,0,0,1-.91-.09q-.39.24-.39.53a.39.39,0,0,0,.23.37,1.88,1.88,0,0,0,.61.17,6.68,6.68,0,0,0,.85,0q.48,0,1,0a7.68,7.68,0,0,1,1,.14,2.86,2.86,0,0,1,.85.32,1.71,1.71,0,0,1,.61.6,1.83,1.83,0,0,1,.23,1,2.29,2.29,0,0,1-.27,1.07,2.88,2.88,0,0,1-.78.92,4.1,4.1,0,0,1-1.26.65,5.37,5.37,0,0,1-1.7.25,6.53,6.53,0,0,1-1.64-.18,3.83,3.83,0,0,1-1.15-.48,2.1,2.1,0,0,1-.68-.7,1.64,1.64,0,0,1-.23-.82,1.41,1.41,0,0,1,.36-1,2.44,2.44,0,0,1,1-.63,1.37,1.37,0,0,1-.49-.45,1.31,1.31,0,0,1-.19-.73,1.23,1.23,0,0,1,.06-.38,1.54,1.54,0,0,1,.2-.39,1.92,1.92,0,0,1,.34-.37A2.3,2.3,0,0,1,58,13a2.61,2.61,0,0,1-1-.9,2.41,2.41,0,0,1-.36-1.32,2.43,2.43,0,0,1,.93-2,3.13,3.13,0,0,1,1-.54A4.43,4.43,0,0,1,59.91,8.11Zm2.19,8.78a.57.57,0,0,0-.15-.4,1,1,0,0,0-.4-.24,2.88,2.88,0,0,0-.59-.13,5.83,5.83,0,0,0-.71,0h-.78a3.3,3.3,0,0,1-.77-.09,1.81,1.81,0,0,0-.55.44A.9.9,0,0,0,58,17a.8.8,0,0,0,.11.41.91.91,0,0,0,.35.33A2.06,2.06,0,0,0,59,18,4.77,4.77,0,0,0,60,18a4.65,4.65,0,0,0,1-.09,2.28,2.28,0,0,0,.67-.24,1,1,0,0,0,.38-.36A.9.9,0,0,0,62.09,16.89ZM59.91,12.2a1.87,1.87,0,0,0,.65-.1,1.27,1.27,0,0,0,.46-.28,1.15,1.15,0,0,0,.27-.43,1.57,1.57,0,0,0,.09-.55,1.3,1.3,0,0,0-.37-1,1.87,1.87,0,0,0-2.2,0,1.3,1.3,0,0,0-.37,1,1.54,1.54,0,0,0,.09.54,1.19,1.19,0,0,0,.27.43,1.24,1.24,0,0,0,.46.28A1.88,1.88,0,0,0,59.91,12.2Z"/><path class="cls-3" d="M67,5.84a1.14,1.14,0,0,1-.1.48,1.32,1.32,0,0,1-.69.67,1.25,1.25,0,0,1-.5.1,1.2,1.2,0,0,1-.49-.1,1.29,1.29,0,0,1-.4-.27,1.31,1.31,0,0,1-.27-.4,1.17,1.17,0,0,1-.1-.48,1.25,1.25,0,0,1,.1-.5,1.28,1.28,0,0,1,.27-.4,1.29,1.29,0,0,1,.4-.27,1.2,1.2,0,0,1,.49-.1,1.25,1.25,0,0,1,.5.1,1.33,1.33,0,0,1,.41.27,1.31,1.31,0,0,1,.28.4A1.21,1.21,0,0,1,67,5.84Zm-.3,2.41v8.29h-2V8.26Z"/><path class="cls-3" d="M70.88,16.67a2.18,2.18,0,0,1-1.66-.61,2.34,2.34,0,0,1-.58-1.68V9.75H67.8a.38.38,0,0,1-.4-.42V8.54l1.33-.22.42-2.26a.4.4,0,0,1,.15-.25.47.47,0,0,1,.29-.09h1V8.33h2.18V9.75H70.64v4.49a.88.88,0,0,0,.19.61.66.66,0,0,0,.52.22.94.94,0,0,0,.31,0l.22-.09.17-.09a.28.28,0,0,1,.15,0,.23.23,0,0,1,.15,0,.69.69,0,0,1,.12.13l.6,1a3,3,0,0,1-1,.55A3.72,3.72,0,0,1,70.88,16.67Z"/><path class="cls-3" d="M80.09,16.54h-.9a1,1,0,0,1-.44-.08.54.54,0,0,1-.24-.34l-.18-.59a6.85,6.85,0,0,1-.62.5,3.77,3.77,0,0,1-.63.36,3.2,3.2,0,0,1-.69.22,4.14,4.14,0,0,1-.81.07,3.18,3.18,0,0,1-1-.14,2.09,2.09,0,0,1-.76-.43,1.93,1.93,0,0,1-.5-.71,2.51,2.51,0,0,1-.18-1,1.94,1.94,0,0,1,.25-.93,2.32,2.32,0,0,1,.82-.83,5.23,5.23,0,0,1,1.53-.61,9.75,9.75,0,0,1,2.37-.24v-.49a1.85,1.85,0,0,0-.35-1.24,1.28,1.28,0,0,0-1-.4,2.47,2.47,0,0,0-.81.11,3.13,3.13,0,0,0-.56.25L75,10.3a.89.89,0,0,1-.44.11.58.58,0,0,1-.35-.1.82.82,0,0,1-.23-.26l-.36-.64A4.93,4.93,0,0,1,77,8.1a3.33,3.33,0,0,1,1.3.24,2.76,2.76,0,0,1,1,.66,2.84,2.84,0,0,1,.6,1,3.9,3.9,0,0,1,.21,1.29ZM76.22,15.3a2.7,2.7,0,0,0,.57-.06,2.17,2.17,0,0,0,.49-.17,2.62,2.62,0,0,0,.44-.27,4,4,0,0,0,.43-.39V13a8.1,8.1,0,0,0-1.46.11,3.86,3.86,0,0,0-.94.28,1.21,1.21,0,0,0-.5.4.88.88,0,0,0-.15.5.88.88,0,0,0,.31.76A1.34,1.34,0,0,0,76.22,15.3Z"/><path class="cls-3" d="M83.37,4.54v12h-2v-12Z"/><path class="cls-3" d="M96.13,10.71a6.47,6.47,0,0,1-.43,2.38A5.64,5.64,0,0,1,94.5,15a5.44,5.44,0,0,1-1.87,1.25,6.74,6.74,0,0,1-4.83,0A5.48,5.48,0,0,1,85.93,15a5.6,5.6,0,0,1-1.21-1.89,6.47,6.47,0,0,1-.43-2.38,6.47,6.47,0,0,1,.43-2.38,5.6,5.6,0,0,1,1.21-1.89A5.48,5.48,0,0,1,87.8,5.19a6.32,6.32,0,0,1,2.42-.45,6.24,6.24,0,0,1,2.41.45A5.52,5.52,0,0,1,94.5,6.44a5.59,5.59,0,0,1,1.2,1.89A6.47,6.47,0,0,1,96.13,10.71Zm-2.23,0A5.44,5.44,0,0,0,93.65,9a3.65,3.65,0,0,0-.73-1.3,3.15,3.15,0,0,0-1.16-.82,4.34,4.34,0,0,0-3.08,0,3.18,3.18,0,0,0-1.17.82A3.66,3.66,0,0,0,86.77,9a5.35,5.35,0,0,0-.26,1.72,5.35,5.35,0,0,0,.26,1.72,3.62,3.62,0,0,0,.74,1.29,3.19,3.19,0,0,0,1.17.81,4.34,4.34,0,0,0,3.08,0,3.17,3.17,0,0,0,1.16-.81,3.61,3.61,0,0,0,.73-1.29A5.44,5.44,0,0,0,93.9,10.71Z"/><path class="cls-3" d="M102.75,10a1,1,0,0,1-.17.18.4.4,0,0,1-.25.06.55.55,0,0,1-.3-.09l-.35-.21a2.6,2.6,0,0,0-.48-.21,2.21,2.21,0,0,0-.69-.09,2.11,2.11,0,0,0-.92.19,1.74,1.74,0,0,0-.66.55,2.46,2.46,0,0,0-.39.86,4.62,4.62,0,0,0-.13,1.14,4.47,4.47,0,0,0,.14,1.18,2.52,2.52,0,0,0,.41.87,1.76,1.76,0,0,0,.65.53,2,2,0,0,0,.86.18,2.12,2.12,0,0,0,.77-.12,2.44,2.44,0,0,0,.5-.26l.35-.26a.53.53,0,0,1,.34-.12.41.41,0,0,1,.36.19l.57.73a3.61,3.61,0,0,1-.72.65,3.9,3.9,0,0,1-.8.42,4.09,4.09,0,0,1-.86.22,6.12,6.12,0,0,1-.88.06,3.68,3.68,0,0,1-1.45-.29,3.38,3.38,0,0,1-1.18-.84,4,4,0,0,1-.8-1.34,5.2,5.2,0,0,1-.29-1.81,5.27,5.27,0,0,1,.26-1.69,3.83,3.83,0,0,1,.77-1.35,3.54,3.54,0,0,1,1.26-.89,4.34,4.34,0,0,1,1.73-.32,4.11,4.11,0,0,1,1.63.3,4,4,0,0,1,1.26.86Z"/><path class="cls-3" d="M107.25,8.13a4,4,0,0,1,1.44.25,3.16,3.16,0,0,1,1.13.73,3.34,3.34,0,0,1,.74,1.18,4.45,4.45,0,0,1,.27,1.6,2.93,2.93,0,0,1,0,.38.6.6,0,0,1-.07.23.29.29,0,0,1-.14.12.6.6,0,0,1-.23,0h-5.12a2.85,2.85,0,0,0,.69,1.87,2.14,2.14,0,0,0,1.58.6,2.74,2.74,0,0,0,.84-.11,3.92,3.92,0,0,0,.61-.25l.46-.25a.77.77,0,0,1,.38-.11.43.43,0,0,1,.21,0,.47.47,0,0,1,.15.14l.58.73A3.33,3.33,0,0,1,110,16a4.17,4.17,0,0,1-.86.42,4.71,4.71,0,0,1-.91.22,6.55,6.55,0,0,1-.9.06,4.43,4.43,0,0,1-1.61-.29,3.59,3.59,0,0,1-1.29-.85,4,4,0,0,1-.86-1.39,5.38,5.38,0,0,1-.31-1.92,4.59,4.59,0,0,1,.27-1.6,3.83,3.83,0,0,1,.79-1.3,3.71,3.71,0,0,1,1.25-.88A4.12,4.12,0,0,1,107.25,8.13Zm0,1.43a1.84,1.84,0,0,0-1.36.49,2.43,2.43,0,0,0-.63,1.4H109a2.48,2.48,0,0,0-.1-.73,1.69,1.69,0,0,0-.32-.6,1.53,1.53,0,0,0-.55-.41A1.87,1.87,0,0,0,107.29,9.56Z"/><path class="cls-3" d="M118.14,16.54h-.9a1,1,0,0,1-.44-.08.54.54,0,0,1-.24-.34l-.18-.59a6.85,6.85,0,0,1-.62.5,3.77,3.77,0,0,1-.63.36,3.2,3.2,0,0,1-.69.22,4.14,4.14,0,0,1-.81.07,3.18,3.18,0,0,1-1-.14,2.09,2.09,0,0,1-.76-.43,1.93,1.93,0,0,1-.5-.71,2.51,2.51,0,0,1-.18-1,1.94,1.94,0,0,1,.25-.93,2.32,2.32,0,0,1,.82-.83,5.23,5.23,0,0,1,1.53-.61,9.75,9.75,0,0,1,2.37-.24v-.49a1.85,1.85,0,0,0-.35-1.24,1.28,1.28,0,0,0-1-.4,2.47,2.47,0,0,0-.81.11,3.13,3.13,0,0,0-.56.25l-.44.25a.89.89,0,0,1-.44.11.58.58,0,0,1-.35-.1.82.82,0,0,1-.23-.26l-.36-.64a4.93,4.93,0,0,1,3.45-1.31,3.33,3.33,0,0,1,1.3.24,2.76,2.76,0,0,1,1,.66,2.84,2.84,0,0,1,.6,1,3.9,3.9,0,0,1,.21,1.29Zm-3.88-1.24a2.7,2.7,0,0,0,.57-.06,2.17,2.17,0,0,0,.49-.17,2.62,2.62,0,0,0,.44-.27,4,4,0,0,0,.43-.39V13a8.1,8.1,0,0,0-1.46.11,3.86,3.86,0,0,0-.94.28,1.21,1.21,0,0,0-.5.4.88.88,0,0,0-.15.5.88.88,0,0,0,.31.76A1.34,1.34,0,0,0,114.26,15.3Z"/><path class="cls-3" d="M119.29,16.54V8.26h1.22a.49.49,0,0,1,.51.36l.14.65a4.54,4.54,0,0,1,.53-.47,3.69,3.69,0,0,1,.59-.36,3,3,0,0,1,.67-.23,3.5,3.5,0,0,1,.78-.08,3,3,0,0,1,1.2.23,2.38,2.38,0,0,1,.88.65,2.84,2.84,0,0,1,.53,1,4.22,4.22,0,0,1,.18,1.27v5.27h-2V11.27a1.77,1.77,0,0,0-.35-1.17,1.3,1.3,0,0,0-1.05-.42,2.08,2.08,0,0,0-1,.23,3.48,3.48,0,0,0-.86.64v6Z"/></g></g></g></svg>