<svg xmlns="http://www.w3.org/2000/svg" xmlns:xlink="http://www.w3.org/1999/xlink" viewBox="0 0 171 171"><defs><style>.cls-1{fill:#121921;}.cls-2{fill:#fff;}.cls-3{fill:url(#New_Gradient_Swatch_11);}.cls-4{fill:url(#linear-gradient);}.cls-5{fill:url(#New_Gradient_Swatch_1);}</style><linearGradient id="New_Gradient_Swatch_11" x1="144.28" y1="18.7" x2="158.02" y2="18.7" gradientUnits="userSpaceOnUse"><stop offset="0" stop-color="#61c4b4" stop-opacity="0"/><stop offset="1" stop-color="#61c4b4"/></linearGradient><linearGradient id="linear-gradient" x1="146.87" y1="18.7" x2="156.18" y2="18.7" gradientUnits="userSpaceOnUse"><stop offset="0" stop-color="#61c4b4"/><stop offset="1" stop-color="#61c4b4" stop-opacity="0"/></linearGradient><linearGradient id="New_Gradient_Swatch_1" x1="32.45" y1="32.32" x2="138.68" y2="138.55" gradientUnits="userSpaceOnUse"><stop offset="0" stop-color="#b0ded5"/><stop offset="1" stop-color="#61c4b4"/></linearGradient></defs><title>founders-talk-cover-art</title><g id="Layer_2" data-name="Layer 2"><g id="Layer_1-2" data-name="Layer 1"><rect class="cls-1" width="171" height="171"/><path class="cls-2" d="M153.57,17.8a1.54,1.54,0,1,0-1.24,2.48,1.59,1.59,0,0,0,1.26-.68l.78.73a2.61,2.61,0,1,1-2-4.22,2.57,2.57,0,0,1,2,1Z"/><path class="cls-3" d="M152.29,26.72h-.16a8,8,0,0,1-5.73-2.57,8,8,0,0,1,0-10.89A8,8,0,0,1,158,13a.22.22,0,1,1-.31.31,7.58,7.58,0,0,0-10.93.21,7.61,7.61,0,0,0,0,10.3,7.58,7.58,0,0,0,10.93.21.22.22,0,1,1,.31.31A8,8,0,0,1,152.29,26.72Z"/><path class="cls-4" d="M152.28,24.12h-.18a5.42,5.42,0,0,1,0-10.83,5.43,5.43,0,0,1,4,1.58.22.22,0,0,1-.31.31,5,5,0,0,0-3.7-1.46,5,5,0,0,0,0,10,5,5,0,0,0,3.7-1.46.22.22,0,0,1,.31.31A5.44,5.44,0,0,1,152.28,24.12Z"/><path class="cls-5" d="M85.54,10.4l-53.15,22-21.94,53,0,.12,21.8,52.58,0,.12,53.25,22.4,53-22,.12,0,22-53,0-.12-21.95-53,0-.12-53-21.93Zm74.4,75.1-21.8,52.64L85.5,159.93l-52.77-22.2L11.07,85.51,32.87,32.87,85.54,11.08l52.6,21.79Zm-129.85-23v45.64L62.52,141h46L141,108.49v-46L108.49,30h-46Zm78.14-31.82,32.13,32.13v45.44l-32.13,32.13H62.78L30.72,107.86V62.73L62.78,30.65ZM85.36,130.79l.12,0,32.1-13.29,13.17-31.91,0-.12L117.55,53.45,85.48,40.19l-32,13.26-13.27,32,13.27,32ZM53.93,53.94,85.48,40.88l31.58,13.06,13.06,31.58-13,31.55L85.48,130.15,53.94,117.06,40.86,85.5ZM98.6,117.12l18.62-18.59V72.46L98.6,53.88H72.4L53.79,72.46V98.54L72.4,117.12ZM54.42,72.72,72.66,54.51H98.34l18.25,18.22V98.28L98.34,116.49H72.66L54.42,98.28Zm50.47,32.16,8-19.39-8-19.38-19.39-8-19.38,8-8,19.39,8,19.38,19.38,8ZM58.77,85.5,66.6,66.6l18.9-7.83,18.9,7.83,7.83,18.9-7.83,18.9-18.9,7.83L66.6,104.4Z"/><rect class="cls-1" y="64.13" width="171" height="42.75"/><path class="cls-2" d="M17.85,77.75V80h-5.3v4.47h4.74v2.26H12.54v6.56H9.93V77.75Z"/><path class="cls-2" d="M20.62,86.52v-2c0-4.9,2-7,4.9-7s4.9,2.1,4.9,7v2c0,4.9-2,7-4.9,7S20.62,91.42,20.62,86.52Zm2.62-2v2c0,3.36.74,4.74,2.28,4.74s2.28-1.38,2.28-4.74v-2c0-3.36-.74-4.74-2.28-4.74S23.24,81.17,23.24,84.54Z"/><path class="cls-2" d="M43.9,77.75V87c0,4.6-2.05,6.52-4.87,6.52S34.16,91.6,34.16,87V77.75h2.62V87c0,3,.65,4.22,2.26,4.22S41.29,90,41.29,87V77.75Z"/><path class="cls-2" d="M57.71,77.75V93.31H55.34l-4.56-9.23v9.23H48.17V77.75h2.32l4.6,9.36V77.75Z"/><path class="cls-2" d="M62,93.31V77.75h4.49c2.86,0,4.9,1.87,4.9,6.86v1.85c0,5-2,6.86-4.9,6.86Zm6.77-6.86V84.6c0-3.2-.56-4.6-2.28-4.6H64.6V91.06h1.87C68.18,91.06,68.75,89.66,68.75,86.45Z"/><path class="cls-2" d="M83,77.75V80h-5.3v4.11h4.74v2.26H77.73v4.67H83v2.26H75.11V77.75Z"/><path class="cls-2" d="M93.36,93.31,91.06,87h-2v6.32H86.48V77.75H91c2.93,0,4.76,1.56,4.76,4.65,0,2.14-.81,3.52-2.21,4.15l2.64,6.77Zm-2.59-8.57c1.58,0,2.39-.59,2.39-2.35S92.35,80,90.77,80H89.1v4.74Z"/><path class="cls-2" d="M106,81.49a2.58,2.58,0,0,0-2.46-1.67c-1.26,0-1.85.72-1.85,2,0,1.49.81,2.08,2.5,2.55,2.66.74,3.88,2,3.88,4.65a4.18,4.18,0,0,1-4.42,4.47A5.33,5.33,0,0,1,98.75,91l2-1.4a3,3,0,0,0,2.73,1.67c1.51,0,2-.95,2-2.08s-.5-2-2.57-2.59c-2.46-.7-3.81-2.08-3.81-4.71a4,4,0,0,1,4.4-4.31,4.69,4.69,0,0,1,4.47,2.55Z"/><path class="cls-2" d="M126.1,77.75V80h-3.5V93.31H120V80h-3.5V77.75Z"/><path class="cls-2" d="M126.94,93.31l4.35-15.57h2.57l4.38,15.57h-2.78l-.81-3.23h-4.17l-.79,3.23Zm4.13-5.48h3l-1.49-6.14Z"/><path class="cls-2" d="M143.72,91.06H149v2.26H141.1V77.75h2.62Z"/><path class="cls-2" d="M159.45,93.31l-3.23-6.93-1.67,2.93v4h-2.62V77.75h2.62v7.33l4.08-7.33h2.93L158,84l4.38,9.34Z"/></g></g></svg>