<svg xmlns="http://www.w3.org/2000/svg" xmlns:xlink="http://www.w3.org/1999/xlink" viewBox="0 0 171 171"><defs><style>.cls-1{fill:#121921;}.cls-2{fill:url(#New_Gradient_Swatch_4);}.cls-3{fill:#fff;}.cls-4{fill:url(#linear-gradient);}.cls-5{fill:url(#linear-gradient-2);}</style><linearGradient id="New_Gradient_Swatch_4" x1="32.69" y1="32.39" x2="138.91" y2="138.61" gradientUnits="userSpaceOnUse"><stop offset="0" stop-color="#b0e2fa"/><stop offset="1" stop-color="#5acbf5"/></linearGradient><linearGradient id="linear-gradient" x1="144.28" y1="18.7" x2="158.02" y2="18.7" gradientUnits="userSpaceOnUse"><stop offset="0" stop-color="#5acbf5" stop-opacity="0"/><stop offset="1" stop-color="#5acbf5"/></linearGradient><linearGradient id="linear-gradient-2" x1="146.87" y1="18.7" x2="156.18" y2="18.7" gradientUnits="userSpaceOnUse"><stop offset="0" stop-color="#5acbf5"/><stop offset="1" stop-color="#5acbf5" stop-opacity="0"/></linearGradient></defs><title>go-time-cover-art</title><g id="Layer_2" data-name="Layer 2"><g id="Layer_1-2" data-name="Layer 1"><rect class="cls-1" width="171" height="171"/><path class="cls-2" d="M160.91,85.5a32.91,32.91,0,0,0-3.1-13.91,33.43,33.43,0,0,0-2.45-14.42,32.93,32.93,0,0,0-8.46-12,33.41,33.41,0,0,0-8-12.76,32.91,32.91,0,0,0-12-7.64A33.43,33.43,0,0,0,115,16.28a32.93,32.93,0,0,0-14.5-2.52A33.47,33.47,0,0,0,85.8,10.39h0a33.49,33.49,0,0,0-14.25,3.17,32.91,32.91,0,0,0-14.07,2.38,33.41,33.41,0,0,0-12.32,8.65,32.93,32.93,0,0,0-12.46,7.8,33.43,33.43,0,0,0-7.85,12.33,32.91,32.91,0,0,0-8.26,11.61A33.41,33.41,0,0,0,14,71.17a32.93,32.93,0,0,0-3.3,14.33,33.43,33.43,0,0,0,3.17,14.27,32.91,32.91,0,0,0,2.38,14.05,33.41,33.41,0,0,0,8.65,12.32,32.93,32.93,0,0,0,7.8,12.46A33.43,33.43,0,0,0,45,146.46a32.91,32.91,0,0,0,11.62,8.26,33.48,33.48,0,0,0,13,2.65q.83,0,1.65,0a33.47,33.47,0,0,0,14.48,3.28h0a33.49,33.49,0,0,0,14.07-3.09c.53,0,1.06,0,1.59,0a33.5,33.5,0,0,0,12.66-2.5,32.93,32.93,0,0,0,12-8.46,33.41,33.41,0,0,0,12.76-8,32.91,32.91,0,0,0,7.64-12A33.43,33.43,0,0,0,155,114.66a32.93,32.93,0,0,0,2.52-14.49A33.41,33.41,0,0,0,160.91,85.5Zm-.59,0a32.86,32.86,0,0,1-2.85,13.44A34.37,34.37,0,0,0,153.67,86a34.13,34.13,0,0,0,1.54-3.18,33.63,33.63,0,0,0,2.5-10A32.28,32.28,0,0,1,160.31,85.5Zm-14.26,40.74a33,33,0,0,1-9.53,5.92c-1,.39-1.92.73-2.9,1a33.47,33.47,0,0,0,.88-14.9A33.18,33.18,0,0,0,147.9,112,33.71,33.71,0,0,1,146.05,126.23ZM23.69,112a33.18,33.18,0,0,0,12.91,6.16,33.5,33.5,0,0,0,.79,14.43c-1-.31-1.94-.66-2.89-1.06a33,33,0,0,1-9.11-5.74A33.72,33.72,0,0,1,23.69,112Zm-.24-55.91a33,33,0,0,1,1.89-11.06A33.71,33.71,0,0,1,37.82,38a33.18,33.18,0,0,0-.75,14.77A33.47,33.47,0,0,0,23.6,59.18C23.51,58.17,23.45,57.14,23.45,56.11ZM148,59.18a33.5,33.5,0,0,0-13-6.33,33.18,33.18,0,0,0-.66-14.29,33.73,33.73,0,0,1,12,6.91,33,33,0,0,1,1.76,10.64C148.14,57.14,148.09,58.17,148,59.18Zm-32.57,78.69a12.15,12.15,0,0,1-4.79,9.66,32.59,32.59,0,0,1-13.21-4.88c.51-.76,1-1.54,1.44-2.35a5.28,5.28,0,1,0,3.68-9.89q.27-1.35.43-2.72a33.42,33.42,0,0,0,8.1,4.86,34.1,34.1,0,0,0,3.65,1.29A12.09,12.09,0,0,1,115.42,137.87ZM56.17,33.13a12.15,12.15,0,0,1,4.68-9.57,32.85,32.85,0,0,1,13.33,4.82q-.77,1.12-1.44,2.32A5.28,5.28,0,1,0,69,40.59c-.18.9-.32,1.81-.42,2.72A33.43,33.43,0,0,0,59.28,38c-.8-.3-1.61-.56-2.41-.79A12.09,12.09,0,0,1,56.17,33.13ZM132.3,60a32.81,32.81,0,0,1-5,8.25q-.83-.08-1.66-.12A14.49,14.49,0,0,1,117,64.78a14.49,14.49,0,0,1,.26-9.24c.19-.52.37-1,.53-1.58a32.83,32.83,0,0,1,10.85-1.39,32,32,0,0,1,5.65.74A33.23,33.23,0,0,1,132.3,60ZM116.43,106.1c-.24.2-.49.39-.72.6a32.66,32.66,0,0,1-4,3.15,33.78,33.78,0,0,0,1.82-3.67q.34-.81.64-1.63.65-.59,1.27-1.21a33.75,33.75,0,0,0,2.71-3.07,32.68,32.68,0,0,1-1.39,4.93C116.61,105.5,116.52,105.8,116.43,106.1Zm-10.25,10.1c-.23.07-.45.13-.68.22a32.69,32.69,0,0,1-4.93,1.39,33.76,33.76,0,0,0,3.07-2.71c.36-.36.72-.74,1.06-1.12.48-.17,1-.35,1.44-.55a33.76,33.76,0,0,0,3.69-1.78,32.68,32.68,0,0,1-3.19,4C106.48,115.84,106.33,116,106.18,116.21Zm-5.07,9.09a15.08,15.08,0,0,0-5.66-3.06A3.28,3.28,0,0,0,96,120.8a33.21,33.21,0,0,0,3.48-2.19,33.26,33.26,0,0,0,6-1.56,15.08,15.08,0,0,0-2.92,8.09A12.75,12.75,0,0,0,101.11,125.3Zm1.44.43c0,.26,0,.53-.05.79l-.8-.71C102,125.77,102.27,125.75,102.55,125.73Zm-34,0,.69,0-.66.57C68.59,126.12,68.58,125.91,68.57,125.71Zm0-.6h0A15.09,15.09,0,0,0,65.8,117l.08,0a33.25,33.25,0,0,0,6.2,1.63,33.21,33.21,0,0,0,3.48,2.19A3.19,3.19,0,0,0,76,122a15.08,15.08,0,0,0-6.12,3.17A12.81,12.81,0,0,0,68.54,125.11Zm-3.94-9.7a32.66,32.66,0,0,1-3.15-4,33.78,33.78,0,0,0,3.67,1.82q.81.34,1.63.64.59.65,1.21,1.27A33.76,33.76,0,0,0,71,117.81a32.68,32.68,0,0,1-4.93-1.39c-.3-.11-.6-.2-.9-.29C65,115.89,64.8,115.65,64.59,115.41Zm-9.72-10.21a32.69,32.69,0,0,1-1.39-4.93,33.76,33.76,0,0,0,2.71,3.07c.37.37.74.72,1.12,1.06.17.48.35,1,.55,1.44a33.76,33.76,0,0,0,1.78,3.69,32.68,32.68,0,0,1-4-3.19c-.17-.16-.36-.31-.54-.46S55,105.43,54.87,105.21Zm.29-40.31c.24-.2.49-.39.72-.6a32.68,32.68,0,0,1,4.05-3.15A33.86,33.86,0,0,0,57.62,66c-.05.13-.09.27-.14.4l-.32.28a33.87,33.87,0,0,0-3.67,4,32.69,32.69,0,0,1,1.39-4.94C55,65.5,55.07,65.2,55.16,64.9Zm10.25-10.1c.23-.07.45-.13.68-.22A32.71,32.71,0,0,1,71,53.19a33.86,33.86,0,0,0-4,3.67l-.14.16-.2.07a33.86,33.86,0,0,0-4.94,2.26,32.72,32.72,0,0,1,3.2-4C65.11,55.16,65.26,55,65.41,54.79Zm5.07-9.09a15.08,15.08,0,0,0,5.66,3.06,3.28,3.28,0,0,0-.58,1.44,33.18,33.18,0,0,0-3.48,2.18,33.26,33.26,0,0,0-6,1.56A15.08,15.08,0,0,0,69,45.86,12.75,12.75,0,0,0,70.48,45.7ZM69,45.27q0-.39.05-.78l.79.71C69.61,45.23,69.33,45.25,69,45.27Zm34,0-.69,0,.65-.57C103,44.89,103,45.09,103,45.29Zm0,.6h0A15.09,15.09,0,0,0,105.79,54l-.08,0a33.25,33.25,0,0,0-6.2-1.63A33.16,33.16,0,0,0,96,50.2,3.19,3.19,0,0,0,95.59,49a15.08,15.08,0,0,0,6.12-3.17A12.81,12.81,0,0,0,103.06,45.89Zm3.94,9.7a32.68,32.68,0,0,1,3.15,4.05,33.86,33.86,0,0,0-4.91-2.32l-.4-.14-.28-.32a33.87,33.87,0,0,0-4-3.67,32.69,32.69,0,0,1,4.94,1.39c.29.11.6.2.89.29C106.6,55.11,106.79,55.35,107,55.59Zm9.72,10.21a32.69,32.69,0,0,1,1.39,4.94,33.86,33.86,0,0,0-3.67-4l-.16-.14-.07-.2A33.86,33.86,0,0,0,112,61.45a32.72,32.72,0,0,1,4,3.2c.17.16.36.31.54.46S116.64,65.57,116.72,65.79ZM96,120.12A3.09,3.09,0,0,0,95.7,119c.84,0,1.67-.11,2.49-.21Q97.14,119.5,96,120.12Zm-3.15,1.62c-.31,0-.62-.07-.94-.08-.51,0-1-.06-1.53-.11a4.82,4.82,0,0,0-1.89-1c.74-.24,1.49-.51,2.22-.81q.82-.33,1.61-.7c.58,0,1.17,0,1.75,0l.93,0a2.55,2.55,0,0,1,.43,1.39h0c-.57.31-1.15.6-1.75.88C93.44,121.43,93.17,121.58,92.89,121.73Zm-1.81,1.15a1.64,1.64,0,0,0-.18-.71l1,.07H92C91.69,122.45,91.38,122.66,91.08,122.88Zm-11.64-.73,1.31-.07a1.66,1.66,0,0,0-.23.8Q80,122.49,79.43,122.15Zm-.23-.58c-.24,0-.47,0-.71.05s-.41-.23-.63-.33c-.59-.27-1.17-.57-1.75-.88h0a2.55,2.55,0,0,1,.43-1.39l.93,0c.52,0,1,0,1.54,0,.46.22.93.43,1.41.63.81.34,1.63.64,2.46.92a4.86,4.86,0,0,0-1.6.86C80.6,121.5,79.91,121.55,79.21,121.57Zm-5.81-2.78c.83.1,1.66.17,2.49.21a3.09,3.09,0,0,0-.34,1.11Q74.45,119.5,73.4,118.79ZM58,66.8a32,32,0,0,1,4.25-3.2,33.14,33.14,0,0,0-2.06,4.67,33.14,33.14,0,0,0-3.55,3.67A32,32,0,0,1,58,66.8Zm9.25-9.26a32,32,0,0,1,5.36-1.37,33.14,33.14,0,0,0-3.84,3.66,33.15,33.15,0,0,0-4.85,2.12A32,32,0,0,1,67.23,57.53Zm8.32-6.64A3.09,3.09,0,0,0,75.89,52q-1.26.06-2.5.21Q74.44,51.51,75.55,50.89Zm3.15-1.62c.31,0,.62.07.94.08.51,0,1,.06,1.53.11a4.82,4.82,0,0,0,1.89,1,34.1,34.1,0,0,0-3.43,1.33l-.38.19-.43,0c-.76,0-1.51,0-2.26,0a2.55,2.55,0,0,1-.43-1.39h0c.57-.31,1.15-.6,1.75-.88C78.15,49.57,78.43,49.42,78.7,49.27Zm1.81-1.15a1.64,1.64,0,0,0,.18.71l-1-.07h-.08C79.9,48.55,80.21,48.34,80.51,48.12Zm11.64.73-1.31.07a1.66,1.66,0,0,0,.23-.8Q91.6,48.51,92.16,48.85Zm.23.58c.24,0,.47,0,.71-.05s.42.23.63.33c.59.27,1.17.57,1.75.88h0A2.55,2.55,0,0,1,95,52c-.75,0-1.5,0-2.26,0h-.21l-.19-.1a34.05,34.05,0,0,0-3.68-1.46,4.87,4.87,0,0,0,1.6-.87C91,49.5,91.69,49.45,92.39,49.43Zm5.81,2.78Q97,52.06,95.7,52A3.09,3.09,0,0,0,96,50.89Q97.15,51.51,98.2,52.21Zm9.5,9.72A33.14,33.14,0,0,0,103,59.88a33.14,33.14,0,0,0-3.67-3.55,32,32,0,0,1,5.14,1.36A32,32,0,0,1,107.7,61.93Zm6.06,5a32,32,0,0,1,1.37,5.35,33.15,33.15,0,0,0-3.65-3.84,33.15,33.15,0,0,0-2.12-4.86A32,32,0,0,1,113.76,66.93Zm-19.2,51.51h-.46l-.62,0,.68-.36A5,5,0,0,1,94.57,118.44Zm-2.33,0a33.08,33.08,0,0,1-5.24-.72,33.12,33.12,0,0,0,3.66-1.32,10.52,10.52,0,0,1,3,1.32Q93,118.06,92.24,118.4Zm-6.44,1.72a9.85,9.85,0,0,0-1.82.17,33.2,33.2,0,0,1-3.32-1.19l-.38-.17A33.56,33.56,0,0,0,85.8,118a33.55,33.55,0,0,0,5.3.9l-.57.25c-1,.42-2.07.78-3.12,1.09A10,10,0,0,0,85.8,120.12Zm-8.47-2,.57.3H77C77.12,118.34,77.22,118.24,77.33,118.15Zm.51-.4a10.39,10.39,0,0,1,3.09-1.38,33.12,33.12,0,0,0,3.66,1.32,33.09,33.09,0,0,1-5.45.73C78.71,118.2,78.27,118,77.84,117.75ZM77,52.55H78.1l-.67.37A5,5,0,0,1,77,52.55Zm2.34.06a32,32,0,0,1,5.26.74A33.05,33.05,0,0,0,81,54.67a10.62,10.62,0,0,1-3.09-1.35Q78.64,52.95,79.36,52.61Zm6.44-1.72a9.84,9.84,0,0,0,1.83-.17,33.24,33.24,0,0,1,3.67,1.36,32.62,32.62,0,0,0-5.5.95,32.61,32.61,0,0,0-5.29-.93,33.29,33.29,0,0,1,3.68-1.33A10,10,0,0,0,85.8,50.88Zm8.46,2-.55-.3h.87C94.47,52.66,94.37,52.76,94.26,52.86Zm-.51.39a10.48,10.48,0,0,1-3.19,1.41A33.05,33.05,0,0,0,87,53.35a32,32,0,0,1,5.47-.75C92.88,52.81,93.32,53,93.75,53.26Zm14.93,47.63a33.42,33.42,0,0,1-2.73,2.36,33.21,33.21,0,0,0,1.86-3.38,34,34,0,0,0,2.11-2.7A33.4,33.4,0,0,1,108.68,100.89Zm-7.61,7.62a33.42,33.42,0,0,1-3.59,1.18,33.21,33.21,0,0,0,2.87-2.26,33.21,33.21,0,0,0,3.2-1.77A33.43,33.43,0,0,1,101.07,108.5Zm-33-2.85a33.19,33.19,0,0,0,3.05,1.7,33.21,33.21,0,0,0,2.72,2.19,33.42,33.42,0,0,1-3.42-1.16A33.4,33.4,0,0,1,68,105.66Zm-5.25-4.89a33.41,33.41,0,0,1-1.26-3.88,34,34,0,0,0,2.18,2.85,33.2,33.2,0,0,0,1.93,3.52A33.42,33.42,0,0,1,62.79,100.77Zm-4-21a33.39,33.39,0,0,1,1.75-3.4,34,34,0,0,0-.47,3.56,33.18,33.18,0,0,0-1.06,3.55A33.85,33.85,0,0,1,58.84,79.79Zm4.26-9.86a33.39,33.39,0,0,1,2.78-2.37,34,34,0,0,0-1.7,3,33.19,33.19,0,0,0-2.25,2.74A33.85,33.85,0,0,1,63.1,69.93Zm7.48-7.35a33.85,33.85,0,0,1,3.57-1.17q-1.34.94-2.59,2a33.19,33.19,0,0,0-3.26,1.76A33.85,33.85,0,0,1,70.59,62.59Zm32.7,2.59a33.19,33.19,0,0,0-3.12-1.69q-1.18-1-2.45-1.93a33.85,33.85,0,0,1,3.41,1.16Q102.27,63.89,103.28,65.18Zm6.52,8.38a33.18,33.18,0,0,0-2.32-2.89,34,34,0,0,0-1.78-3.12,33.39,33.39,0,0,1,2.9,2.49A33.85,33.85,0,0,1,109.8,73.56Zm2.73,9.93a33.19,33.19,0,0,0-1-3.4,34,34,0,0,0-.42-3.4A33.37,33.37,0,0,1,112.75,80,33.85,33.85,0,0,1,112.53,83.5Zm-.88,4.68c0-.94-.06-1.88-.15-2.82q.13-1.5.12-3c.26.93.49,1.88.67,2.84Q112,86.69,111.65,88.17ZM100,106.93q-.85.41-1.73.77.86-.56,1.69-1.18t1.52-1Q100.78,106.25,100,106.93Zm-8.93,5.63a33.42,33.42,0,0,1-3.6-.26,33.2,33.2,0,0,0,3.35-1,33.21,33.21,0,0,0,3.48-.38A33.41,33.41,0,0,1,91.09,112.56ZM77,110.86a33.2,33.2,0,0,0,3.62.43,33.21,33.21,0,0,0,3.52,1,33.43,33.43,0,0,1-3.77.26A33.44,33.44,0,0,1,77,110.86Zm-7.11-5.53c.55.39,1.12.77,1.7,1.13s1.16.84,1.75,1.23c-.63-.26-1.25-.54-1.87-.84Q70.62,106.12,69.85,105.33ZM60.5,88.25c.12.67.24,1.33.4,2s.17,1.13.28,1.69q-.36-.91-.66-1.83C60.49,89.48,60.49,88.87,60.5,88.25Zm20-29.7a33.84,33.84,0,0,1,3.59.26,33.94,33.94,0,0,0-3.33.94,33.94,33.94,0,0,0-3.45.39A33.85,33.85,0,0,1,80.5,58.55ZM94.6,60.24A33.93,33.93,0,0,0,91,59.79a33.92,33.92,0,0,0-3.48-1,33.84,33.84,0,0,1,3.74-.26A33.84,33.84,0,0,1,94.6,60.24ZM107,71q.4.8.75,1.62-.45-.67-.94-1.32t-1-1.52Q106.43,70.39,107,71Zm1.51,24a33.42,33.42,0,0,1-2.11,4.16,32.14,32.14,0,0,1-3.17,3.7A33.43,33.43,0,0,1,99.64,106a32.13,32.13,0,0,1-4.54,2.29,33.42,33.42,0,0,1-4.54,1.48,33.42,33.42,0,0,1-9.66,0,33.41,33.41,0,0,1-4.66-1.57A32.14,32.14,0,0,1,71.89,106a33.43,33.43,0,0,1-3.52-3.06A32.12,32.12,0,0,1,65.07,99,33.43,33.43,0,0,1,63,94.79a32.14,32.14,0,0,1-1.49-4.64,33.43,33.43,0,0,1-.33-4.66,32.12,32.12,0,0,1,.41-5.07,33.43,33.43,0,0,1,1.53-4.5,32.14,32.14,0,0,1,2.23-4.34,33.43,33.43,0,0,1,3.06-3.52,32.13,32.13,0,0,1,3.85-3.28,33.43,33.43,0,0,1,4.28-2.11,32.14,32.14,0,0,1,4.66-1.49,33.15,33.15,0,0,1,9.37,0,32.12,32.12,0,0,1,4.82,1.59,33.42,33.42,0,0,1,4.15,2.1,32.14,32.14,0,0,1,3.71,3.18,33.42,33.42,0,0,1,3.14,3.62,32.14,32.14,0,0,1,2.26,4.51,33.43,33.43,0,0,1,1.45,4.43,32.14,32.14,0,0,1,.37,4.86,33.42,33.42,0,0,1-.34,4.73A32.12,32.12,0,0,1,108.51,95.06Zm-27.74,15.3c.6.15,1.21.29,1.81.41q-.94,0-1.88-.06-.89-.31-1.76-.68C79.55,110.16,80.16,110.27,80.77,110.36Zm4.86.87c1,.1,2,.16,3,.17q-1.42.39-2.88.65-1.52-.27-3-.68Q84.21,111.36,85.63,111.23Zm3.06-.42c.67-.12,1.33-.26,2-.42s1.32-.21,2-.35c-.63.26-1.27.5-1.91.73C90.06,110.8,89.37,110.81,88.69,110.81Zm1.94-50.19c-.45-.11-.89-.21-1.34-.3.53,0,1.06,0,1.59.06s.92.33,1.37.51Q91.45,60.73,90.63,60.61ZM86,59.82q-1.46-.14-2.91-.15,1.37-.36,2.76-.61,1.46.26,2.9.65Q87.33,59.71,86,59.82Zm-3.33.44q-.79.15-1.58.33t-1.71.28q.76-.3,1.52-.56C81.45,60.29,82,60.27,82.62,60.27Zm28,20.24c-.1-.67-.23-1.34-.38-2,.24.57.47,1.14.68,1.72q.07,1,.08,1.95Q110.86,81.33,110.65,80.5ZM99.83,64.4c-.55-.4-1.11-.78-1.68-1.14.58.23,1.15.48,1.71.74q.73.64,1.43,1.32Q100.58,64.84,99.83,64.4Zm-4.48-2.75c-.74-.38-1.48-.73-2.24-1q1.49.2,3,.53,1.09.71,2.13,1.5C97.27,62.26,96.32,61.93,95.35,61.64ZM85.8,58.46A34.4,34.4,0,0,0,81.85,58,33.75,33.75,0,0,1,86,56.74,33.74,33.74,0,0,1,89.92,58,34.4,34.4,0,0,0,85.8,58.46Zm-7.17,2.07c-.81.34-1.61.71-2.39,1.11s-1.79.58-2.66.92q1.11-.83,2.28-1.56C76.77,60.81,77.69,60.65,78.63,60.53Zm-5.19,2.72c-.51.33-1,.66-1.5,1s-.93.56-1.38.85q.65-.62,1.32-1.2Q72.65,63.57,73.44,63.25Zm-8.61,8q-.52.68-1,1.39.39-.9.83-1.77c.42-.45.85-.89,1.29-1.32C65.57,70.11,65.19,70.67,64.84,71.25Zm-3.85,9q-.21.79-.37,1.58,0-.89.09-1.78.29-.8.63-1.58C61.2,79.09,61.08,79.69,61,80.29Zm3.58,19.07q.41.7.85,1.38-.62-.65-1.2-1.32-.36-.77-.68-1.56C63.87,98.37,64.21,98.87,64.57,99.36ZM76,109.27c.84.45,1.7.85,2.58,1.23q-1.53-.2-3-.54-1.24-.8-2.39-1.71Q74.5,108.83,76,109.27Zm9.84,3.38a33.77,33.77,0,0,0,3.93.46,33.31,33.31,0,0,1-4.11,1.26,33.3,33.3,0,0,1-3.93-1.24A33.77,33.77,0,0,0,85.8,112.65Zm7.11-2.08q1.39-.59,2.73-1.3c.91-.28,1.81-.6,2.69-1q-1.22.94-2.53,1.77Q94.37,110.39,92.91,110.57Zm14-11c.4-.55.78-1.11,1.15-1.68-.23.57-.47,1.14-.74,1.7q-.64.74-1.32,1.43Q106.46,100.27,106.9,99.54Zm3.78-9.21c.14-.59.27-1.18.38-1.78,0,.57,0,1.13,0,1.7q-.28.85-.61,1.68Q110.57,91.14,110.69,90.33Zm0-12.24q-.59-1.38-1.31-2.7c-.29-.9-.61-1.78-1-2.64q.94,1.19,1.77,2.47C110.43,76.17,110.6,77.13,110.73,78.09Zm-4.77-9c-.67-.66-1.37-1.29-2.1-1.88q-1-1.15-2-2.21,1.27.71,2.48,1.53Q105.2,67.79,106,69.11Zm-9.68-8.53a34.39,34.39,0,0,0-3.61-2,33.73,33.73,0,0,1,4.12.37,33.75,33.75,0,0,1,3.3,2.76A34.4,34.4,0,0,0,96.29,60.58ZM91.36,58a34.42,34.42,0,0,0-4.12-1.49,33.2,33.2,0,0,1,4.54-.58,33.19,33.19,0,0,1,4,2.3A34.42,34.42,0,0,0,91.36,58Zm-1.48-2.5.64-.16.16.07ZM86,56.13l-1.27-.29,1.09,0c.61,0,1.21,0,1.79-.08Q86.77,55.94,86,56.13Zm-.18-.85A18.77,18.77,0,0,1,82,54.9a32.4,32.4,0,0,1,3.81-1.26A32.4,32.4,0,0,1,89.6,54.9,18.77,18.77,0,0,1,85.8,55.28Zm-1.09,1.17A34.42,34.42,0,0,0,80.4,58a34.43,34.43,0,0,0-4.55.23A33.18,33.18,0,0,1,80,55.79,33.19,33.19,0,0,1,84.71,56.45Zm-5.64,2.11a34.4,34.4,0,0,0-3.47,1.9,34.4,34.4,0,0,0-4,1.13,33.74,33.74,0,0,1,3.19-2.65A33.74,33.74,0,0,1,79.07,58.55ZM69.87,65c-.67.65-1.31,1.34-1.92,2.06q-1.18.94-2.26,2c.49-.84,1-1.65,1.59-2.44Q68.54,65.69,69.87,65Zm-6.65,7.62q-.59,1.38-1.05,2.81c-.45.83-.86,1.67-1.24,2.54q.22-1.51.57-3Q62.31,73.71,63.22,72.58ZM60,82.24c0,.94,0,1.87.09,2.81-.11,1-.17,2-.19,3-.24-.94-.44-1.89-.6-2.85Q59.59,83.69,60,82.24Zm-.08,8a33.19,33.19,0,0,0,.35,3.53,33.85,33.85,0,0,1-1.54-3.19A33.38,33.38,0,0,1,59,86.9,34,34,0,0,0,59.93,90.2Zm.77,2.13q.56,1.39,1.25,2.73c.27.9.58,1.79.92,2.67q-.92-1.22-1.72-2.52C61,94.25,60.8,93.29,60.7,92.33Zm4.56,9.1c.65.67,1.34,1.31,2.06,1.92a33.13,33.13,0,0,0,2.2,2.49q-1.27-.73-2.48-1.57A32.74,32.74,0,0,1,65.25,101.43Zm10,9.09a33.77,33.77,0,0,0,3.6,2,33.31,33.31,0,0,1-4.11-.38,33.32,33.32,0,0,1-3.3-2.75A33.76,33.76,0,0,0,75.26,110.52Zm4.66,2.65h.29l.26.12a34.05,34.05,0,0,0,3.9,1.36,32.65,32.65,0,0,1-4.57.56,32.65,32.65,0,0,1-4-2.29A34.06,34.06,0,0,0,79.92,113.17Zm1.18,2.53-.12,0,0,0Zm4.52-.73.73.17H85.8l-1,0Zm.18.75a18.7,18.7,0,0,1,3.89.4,32.56,32.56,0,0,1-3.89,1.28,32.56,32.56,0,0,1-3.89-1.28A18.7,18.7,0,0,1,85.8,115.72Zm1.08-1.07a34.06,34.06,0,0,0,3.91-1.31l.42-.18h.46a34.05,34.05,0,0,0,4.12-.26,32.65,32.65,0,0,1-4.16,2.37A32.65,32.65,0,0,1,86.88,114.66Zm5.69-2.1A33.76,33.76,0,0,0,96,110.65a33.78,33.78,0,0,0,4-1.11,33.31,33.31,0,0,1-3.18,2.64A33.32,33.32,0,0,1,92.56,112.55Zm9.39-6.64q1.11-1.12,2.12-2.34,1.15-1,2.21-2-.79,1.4-1.71,2.73Q103.3,105.16,102,105.91Zm6.71-8c.37-.93.7-1.88,1-2.84s.82-1.69,1.18-2.56q-.18,1.51-.5,3Q109.55,96.73,108.67,97.9Zm2.95-7.54a34,34,0,0,0,.95-3.46,33.4,33.4,0,0,1,.29,3.81A33.86,33.86,0,0,1,111.21,94,33.18,33.18,0,0,0,111.62,90.35Zm1.28-5.16a34.4,34.4,0,0,0,.41-3.89,33.38,33.38,0,0,1,1.31,4.16,33.73,33.73,0,0,1-1.21,3.9A33.75,33.75,0,0,0,112.89,85.19Zm.75-4.68c-.09-.23-.2-.45-.29-.67a34.41,34.41,0,0,0-.26-4.5,32.66,32.66,0,0,1,2.42,4.2,33.17,33.17,0,0,1-.62,4.67A34.08,34.08,0,0,0,113.64,80.51Zm-.9-2a33.75,33.75,0,0,0-2-3.52,34.41,34.41,0,0,0-1.15-3.93,33.36,33.36,0,0,1,2.71,3.2A33.74,33.74,0,0,1,112.74,78.51Zm-3.22-8.42-.41-.39A34.41,34.41,0,0,0,107.34,66a33.2,33.2,0,0,1,3.62,2.8A33.18,33.18,0,0,1,112.11,73,34.08,34.08,0,0,0,109.52,70.09ZM108,68.71a33.75,33.75,0,0,0-3.31-2.59,34.41,34.41,0,0,0-2.29-2.85,33.76,33.76,0,0,1,3.8,2A33.73,33.73,0,0,1,108,68.71Zm-6.58-6.5a34.43,34.43,0,0,0-3.38-3.06,33.19,33.19,0,0,1,4.61,1.24,33.18,33.18,0,0,1,2.88,3.8A34.42,34.42,0,0,0,101.46,62.2ZM97,58.36a33.92,33.92,0,0,0-4-2.53,32.44,32.44,0,0,1,5.17.3,32.44,32.44,0,0,1,3.7,3.35A33.92,33.92,0,0,0,97,58.36ZM91.9,55.28,91.4,55a10,10,0,0,0,2.91-1.46,32,32,0,0,1,2.88,1.84A33.15,33.15,0,0,0,91.9,55.28ZM80.19,55l-.33.16a33.13,33.13,0,0,0-5.1.08q1.26-.88,2.61-1.64A10.09,10.09,0,0,0,80.19,55Zm-2.32.69.9,0a33.92,33.92,0,0,0-4.21,2.63,33.93,33.93,0,0,0-4.65,1.07A32.44,32.44,0,0,1,73.79,56,32.4,32.4,0,0,1,77.87,55.72Zm-4.35,3.43a34.42,34.42,0,0,0-3.26,2.94,34.43,34.43,0,0,0-4,1.86,33.19,33.19,0,0,1,2.8-3.62A33.19,33.19,0,0,1,73.51,59.15Zm-4.24,4a34.4,34.4,0,0,0-2.42,3,33.73,33.73,0,0,0-3.18,2.48A33.74,33.74,0,0,1,65.59,65,33.74,33.74,0,0,1,69.27,63.13Zm-6.66,6.46-.53.51A34.09,34.09,0,0,0,59.49,73a33.17,33.17,0,0,1,1.2-4.41,33.18,33.18,0,0,1,3.8-2.88A34.42,34.42,0,0,0,62.61,69.58Zm-.53,1.36a34.41,34.41,0,0,0-1.13,3.75,33.75,33.75,0,0,0-2.09,3.64,33.72,33.72,0,0,1,.4-4.07A33.38,33.38,0,0,1,62.08,70.95Zm-3.83,8.71c-.08.17-.16.34-.23.51a34.08,34.08,0,0,0-1.3,3.68,33.18,33.18,0,0,1-.55-4.49,32.66,32.66,0,0,1,2.34-4A34.4,34.4,0,0,0,58.25,79.66Zm0,1.46a34.4,34.4,0,0,0,.42,4.07,33.74,33.74,0,0,0-.5,4A33.73,33.73,0,0,1,57,85.11,33.36,33.36,0,0,1,58.28,81.12Zm-.14,9.52c0,.24,0,.49,0,.73a34.06,34.06,0,0,0,.26,4.12A32.65,32.65,0,0,1,56,91.33a32.66,32.66,0,0,1,.67-5A34.41,34.41,0,0,0,58.15,90.64ZM58.74,92a34.41,34.41,0,0,0,1.85,3.45,33.76,33.76,0,0,0,1.18,4.29,33.3,33.3,0,0,1-2.64-3.17A33.35,33.35,0,0,1,58.74,92Zm3.34,8.93.21.2.1.27a34.06,34.06,0,0,0,1.79,3.72,32.65,32.65,0,0,1-3.62-2.84,32.65,32.65,0,0,1-1.21-4.44A34.07,34.07,0,0,0,62.08,100.91Zm1.28,1.22a33.77,33.77,0,0,0,3.24,2.57,33.77,33.77,0,0,0,2.46,3.11,33.33,33.33,0,0,1-3.79-2A33.3,33.3,0,0,1,63.36,102.13Zm6.28,6.59.43.17.32.33a34.07,34.07,0,0,0,3.1,2.73,32.65,32.65,0,0,1-4.62-1.27,32.64,32.64,0,0,1-2.92-3.8A34.06,34.06,0,0,0,69.64,108.72Zm4.88,4a33.33,33.33,0,0,0,4,2.5,32.53,32.53,0,0,1-5.13-.34,32.55,32.55,0,0,1-3.71-3.31A33.31,33.31,0,0,0,74.52,112.73Zm3.62,3.11c.51,0,1,0,1.54,0l.42.19a9.88,9.88,0,0,0-2.83,1.43,33,33,0,0,1-2.86-1.81A33.12,33.12,0,0,0,78.13,115.84ZM91.5,116l.25-.11c.58,0,1.16,0,1.75,0a33.12,33.12,0,0,0,3.32-.17q-1.25.86-2.58,1.6A10,10,0,0,0,91.5,116Zm1.37-.67a33.32,33.32,0,0,0,4.21-2.59,33.33,33.33,0,0,0,4.62-1.08A32.54,32.54,0,0,1,97.83,115,32.55,32.55,0,0,1,92.87,115.32Zm5.25-3.37a34.06,34.06,0,0,0,3.1-2.73l.2-.21.27-.1a34.07,34.07,0,0,0,3.72-1.79,32.66,32.66,0,0,1-2.84,3.62A32.65,32.65,0,0,1,98.11,111.95Zm4.31-4A33.77,33.77,0,0,0,105,104.7a33.76,33.76,0,0,0,3.11-2.46,33.32,33.32,0,0,1-2,3.79A33.3,33.3,0,0,1,102.42,107.94Zm6.59-6.28c.06-.14.11-.29.17-.43l.33-.32a34.06,34.06,0,0,0,2.73-3.1,32.65,32.65,0,0,1-1.27,4.62,32.65,32.65,0,0,1-3.8,2.92A34.06,34.06,0,0,0,109,101.66Zm.7-1.81a33.75,33.75,0,0,0,1.17-4.11,34.41,34.41,0,0,0,2-3.59,33.33,33.33,0,0,1-.39,4.4A33.32,33.32,0,0,1,109.71,99.84Zm3.74-9a34.4,34.4,0,0,0,1.44-4.09,32.66,32.66,0,0,1,.6,4.78,32.65,32.65,0,0,1-2.29,4,34.06,34.06,0,0,0,.26-4.12C113.47,91.19,113.46,91,113.45,90.81Zm1.77-5.35a33.91,33.91,0,0,0,.8-4.8,32.54,32.54,0,0,1,1.67,4.84A32.54,32.54,0,0,1,116,90.36,33.33,33.33,0,0,0,115.22,85.46Zm.89-6.05a33.13,33.13,0,0,0-.09-5,32.05,32.05,0,0,1,2.67,4.61A33.08,33.08,0,0,1,118,84.3,33.11,33.11,0,0,0,116.11,79.41Zm-.55-1.1A33.33,33.33,0,0,0,112.9,74a33.93,33.93,0,0,0-1-4.44,32.44,32.44,0,0,1,3.44,3.87A32.42,32.42,0,0,1,115.56,78.31Zm-5-10.66a33.93,33.93,0,0,0-3.87-2.79,33.92,33.92,0,0,0-2.86-4.05,32.44,32.44,0,0,1,4.5,2.17A32.45,32.45,0,0,1,110.56,67.65ZM98.41,55.57a32.64,32.64,0,0,0-3.61-2.4,4.92,4.92,0,0,0,.53-.59,32.89,32.89,0,0,1,3.95.37,33.09,33.09,0,0,1,4.36,3.81A32.61,32.61,0,0,0,98.41,55.57ZM87.65,50.1l-.37-.1q.78-.15,1.57-.26A6.9,6.9,0,0,1,87.65,50.1Zm-1.59.18h-.13l.07,0Zm-1.91-.14a6.71,6.71,0,0,1-1.73-.54q1.16.15,2.3.38Zm-7.9,2.43a5,5,0,0,0,.61.65,32.64,32.64,0,0,0-3.32,2.19,32.61,32.61,0,0,0-5.46,1.2A33.07,33.07,0,0,1,72.31,53,32.89,32.89,0,0,1,76.26,52.58Zm-8.31,8.15a33.93,33.93,0,0,0-2.8,3.88,33.92,33.92,0,0,0-4,2.86A32.43,32.43,0,0,1,63.27,63,32.45,32.45,0,0,1,67.95,60.73Zm-8.17,8.69A33.92,33.92,0,0,0,58.69,74a33.34,33.34,0,0,0-2.57,4.09,32.43,32.43,0,0,1,.31-5A32.44,32.44,0,0,1,59.78,69.42Zm-4.22,9.82a33.1,33.1,0,0,0-2,5.06,33.09,33.09,0,0,1-.73-5.44,32.06,32.06,0,0,1,2.82-4.77A33.14,33.14,0,0,0,55.57,79.24Zm.08,1.25a33.91,33.91,0,0,0,.72,4.62,33.32,33.32,0,0,0-.86,5.09,32.55,32.55,0,0,1-1.61-4.7A32.54,32.54,0,0,1,55.65,80.49Zm-.23,11a33.11,33.11,0,0,0,.12,5.07,33.08,33.08,0,0,1-2.64-4.58,33.08,33.08,0,0,1,.72-5.24A33.11,33.11,0,0,0,55.41,91.45ZM56,92.57a33.31,33.31,0,0,0,2.59,4.21,33.32,33.32,0,0,0,1.08,4.62,32.54,32.54,0,0,1-3.39-3.87A32.55,32.55,0,0,1,56,92.57Zm4.07,10a33.11,33.11,0,0,0,2.15,4.81,33.09,33.09,0,0,1-4.37-3.33,33.09,33.09,0,0,1-1.38-5.32A33.11,33.11,0,0,0,60,102.6Zm1,.83a33.33,33.33,0,0,0,3.84,2.79,33.32,33.32,0,0,0,2.87,4,32.55,32.55,0,0,1-4.46-2.19A32.54,32.54,0,0,1,61,103.43Zm7.53,7.76a33.11,33.11,0,0,0,3.67,3.5,33.08,33.08,0,0,1-5.1-1.37,33.08,33.08,0,0,1-3.2-4.21A33.11,33.11,0,0,0,68.52,111.19Zm4.66,4.28a33.49,33.49,0,0,0,3.61,2.37,4.9,4.9,0,0,0-.53.59,33,33,0,0,1-3.94-.39,33.06,33.06,0,0,1-3.94-3.36l-.43-.45A33.56,33.56,0,0,0,73.18,115.47ZM84,120.89l.34.1q-.77.15-1.55.26A6.93,6.93,0,0,1,84,120.89Zm1.6-.18h0Zm1.87.14a6.7,6.7,0,0,1,1.75.55c-.77-.1-1.54-.24-2.31-.39Zm7.91-2.43a5,5,0,0,0-.61-.66,33.47,33.47,0,0,0,3.34-2.16,33.56,33.56,0,0,0,5.45-1.23l-.29.3A33.06,33.06,0,0,1,99.28,118,33,33,0,0,1,95.34,118.43ZM99,114.85a33.11,33.11,0,0,0,3.85-3.6,33.11,33.11,0,0,0,4.81-2.15,33.09,33.09,0,0,1-3.33,4.37A33.09,33.09,0,0,1,99,114.85Zm4.67-4.55a33.33,33.33,0,0,0,2.79-3.84,33.32,33.32,0,0,0,4-2.87,32.55,32.55,0,0,1-2.19,4.46A32.54,32.54,0,0,1,103.72,110.3Zm7.76-7.53A33.11,33.11,0,0,0,115,99.1a33.08,33.08,0,0,1-1.37,5.1,33.09,33.09,0,0,1-4.21,3.2A33.11,33.11,0,0,0,111.49,102.78Zm.4-1.19A33.31,33.31,0,0,0,113,96.78a33.32,33.32,0,0,0,2.5-4,32.54,32.54,0,0,1-.34,5.13A32.54,32.54,0,0,1,111.88,101.59Zm4.21-10A33.11,33.11,0,0,0,118,86.7a33.09,33.09,0,0,1,.73,5.44,33.09,33.09,0,0,1-2.79,4.73A33.11,33.11,0,0,0,116.1,91.62Zm2.21-6.12a33.54,33.54,0,0,0,.9-5.3A33.09,33.09,0,0,1,121,85.69a33,33,0,0,1-1.63,4.94l-.17.38A33.57,33.57,0,0,0,118.31,85.5Zm1.17-6.17L119.3,79c0-.59,0-1.17,0-1.77a33.75,33.75,0,0,0-.25-4.09,32.7,32.7,0,0,1,2.51,4.48c.13.29.28.56.43.84,0,.31-.07.62-.08.94a32.69,32.69,0,0,1-.64,5.09A33.88,33.88,0,0,0,119.48,79.33Zm-.73-2.14c0,.2,0,.41,0,.61a32.62,32.62,0,0,0-2.86-4.55,32.62,32.62,0,0,0-1.2-5.46A33.07,33.07,0,0,1,118.34,72,33.06,33.06,0,0,1,118.75,77.19Zm-5.43-11.43a32.62,32.62,0,0,0-4.56-3.22,32.62,32.62,0,0,0-3.08-4.4,33.08,33.08,0,0,1,5.18,2.6A33.06,33.06,0,0,1,113.32,65.76Zm-18-15.93q-.58-.3-1.17-.58c.27,0,.55-.08.82-.14A2.9,2.9,0,0,1,95.34,49.83Zm-2.12-1.06a14.48,14.48,0,0,1-2.46-1.64,2.94,2.94,0,0,0-.8-.77,9.49,9.49,0,0,1,4.58,2.23Q93.88,48.71,93.22,48.77Zm-3.77-2c.28.28.57.55.88.8a1.11,1.11,0,0,1,.17.56A1.3,1.3,0,0,1,90,49a33.18,33.18,0,0,0-4,.66,33.19,33.19,0,0,0-4.57-.77,1.23,1.23,0,0,1-.33-.79,1.11,1.11,0,0,1,.17-.56c.3-.26.59-.52.88-.8a8.37,8.37,0,0,1,7.3,0Zm-8.61.4a14.49,14.49,0,0,1-2.25,1.53c-.46-.06-.92-.13-1.37-.23a9.85,9.85,0,0,1,4.42-2.07A2.94,2.94,0,0,0,80.83,47.13Zm-3.14,2-.07,0c-.46.21-.91.44-1.36.67a3,3,0,0,1,.5-.9C77.06,49,77.38,49.07,77.69,49.12ZM66.05,58a32.62,32.62,0,0,0-3.22,4.56,32.61,32.61,0,0,0-4.4,3.08A33.08,33.08,0,0,1,61,60.44,33.07,33.07,0,0,1,66.05,58Zm-9,9.68a32.61,32.61,0,0,0-1.19,5.24,32.62,32.62,0,0,0-3,4.71c0-.14,0-.27,0-.41A33.06,33.06,0,0,1,53.26,72,33.09,33.09,0,0,1,57.06,67.65ZM52.29,78.73l-.09.19A33.87,33.87,0,0,0,50.3,84a32.69,32.69,0,0,1-.58-5.09c0-.24,0-.47-.05-.71s.23-.41.33-.63A32.71,32.71,0,0,1,52.5,73.1a33.75,33.75,0,0,0-.25,4.09C52.25,77.7,52.26,78.22,52.29,78.73ZM52.37,80a33.57,33.57,0,0,0,.91,5.51,33.55,33.55,0,0,0-.9,5.3c-.08-.19-.17-.38-.25-.57a33.06,33.06,0,0,1-1.57-5A33.06,33.06,0,0,1,52.37,80Zm-.78,10.46q.33.82.7,1.61c0,.58,0,1.17,0,1.75a33.75,33.75,0,0,0,.25,4.09A32.7,32.7,0,0,1,50,93.43c-.13-.29-.28-.56-.43-.84,0-.31.07-.62.08-.94a32.71,32.71,0,0,1,.64-5.09A33.76,33.76,0,0,0,51.59,90.45Zm1.25,3.36c0-.21,0-.41,0-.62a33.55,33.55,0,0,0,2.83,4.57,33.57,33.57,0,0,0,1.24,5.45l-.3-.29A33.06,33.06,0,0,1,53.26,99,33.06,33.06,0,0,1,52.84,93.81Zm5.57,11.81-.15-.39a33.56,33.56,0,0,0,4.54,3.25,33.55,33.55,0,0,0,3.11,4.38l-.58-.23a33.07,33.07,0,0,1-4.6-2.39A33.07,33.07,0,0,1,58.41,105.63Zm17.85,15.55c.39.2.78.39,1.17.57-.27,0-.55.08-.82.14A2.9,2.9,0,0,1,76.26,121.18Zm2.12,1.05a14.49,14.49,0,0,1,2.46,1.64,2.93,2.93,0,0,0,.8.77,9.49,9.49,0,0,1-4.58-2.23Q77.71,122.29,78.38,122.23Zm3.77,2c-.28-.28-.57-.55-.87-.8a1.11,1.11,0,0,1-.17-.56,1.3,1.3,0,0,1,.44-.91,33.21,33.21,0,0,0,4-.67,33.22,33.22,0,0,0,4.57.78,1.23,1.23,0,0,1,.34.8,1.11,1.11,0,0,1-.17.56c-.3.25-.59.52-.87.8a8.37,8.37,0,0,1-7.3,0Zm8.61-.4A14.48,14.48,0,0,1,93,122.34c.46.06.92.13,1.37.23A9.85,9.85,0,0,1,90,124.64,2.94,2.94,0,0,0,90.76,123.87Zm3.14-2,.07,0q.69-.32,1.36-.66a3,3,0,0,1-.49.89C94.53,122,94.22,121.93,93.9,121.88Zm12-9-.39.15a33.57,33.57,0,0,0,3.25-4.54,33.55,33.55,0,0,0,4.38-3.11c-.08.19-.15.38-.23.58a33.07,33.07,0,0,1-2.39,4.6A33.07,33.07,0,0,1,105.92,112.89Zm9.05-10-.45.43a33.55,33.55,0,0,0,1.23-5.23,33.56,33.56,0,0,0,3-4.73c0,.14,0,.28,0,.42a33.06,33.06,0,0,1-.41,5.17A33,33,0,0,1,115,102.92Zm4.33-10.65c.22-.46.43-.93.63-1.41A33.76,33.76,0,0,0,121.29,87a32.7,32.7,0,0,1,.57,5.1c0,.24,0,.47.05.71s-.23.42-.33.63a32.67,32.67,0,0,1-2.51,4.47,33.75,33.75,0,0,0,.25-4.09C119.34,93.3,119.33,92.78,119.31,92.27Zm3.14-.41a33.25,33.25,0,0,0-.82-6.16,33.24,33.24,0,0,0,.91-6.34s0-.05,0-.08A15.08,15.08,0,0,0,129,85c.37.17.73.35,1.09.54-.36.18-.72.36-1.09.53A15.09,15.09,0,0,0,122.45,91.86Zm6.79-7.44a14.5,14.5,0,0,1-6.61-6.14,14.5,14.5,0,0,1,3.8-8.18c.38-.41.75-.82,1.1-1.24a32.83,32.83,0,0,1,10.54,2.93,32,32,0,0,1,4.53,2.59,33.29,33.29,0,0,1-4.13,5,32.81,32.81,0,0,1-7.75,5.75Q130,84.78,129.24,84.43ZM126,69.7a15.09,15.09,0,0,0-3.83,7.69l0-.07a33.26,33.26,0,0,0-3.24-5.55,33.26,33.26,0,0,0-1.56-6,15.09,15.09,0,0,0,8.26,2.93c.41,0,.81.05,1.21.08C126.55,69.1,126.28,69.41,126,69.7Zm-9.29-14.37a15.09,15.09,0,0,0-.51,8.75,33.25,33.25,0,0,0-4.92-3.77,33.25,33.25,0,0,0-3.85-5.13l-.05-.06a15.08,15.08,0,0,0,8.57-.54c.38-.14.77-.27,1.15-.39C117,54.57,116.86,55,116.72,55.33Zm-1-1.31a14.5,14.5,0,0,1-9,.33,14.5,14.5,0,0,1-3.09-8.47h0a12.77,12.77,0,0,0,11.3-7.64,32,32,0,0,1,3.16-.76,32.89,32.89,0,0,1-.77,16Q116.54,53.73,115.76,54Zm-12.14-8.74c0-.36,0-.71-.06-1.07a32.84,32.84,0,0,1,9.53-5.38l1.09-.37A12.17,12.17,0,0,1,103.62,45.28Zm9.26-7a33.45,33.45,0,0,0-9.4,5.24q-.16-1.57-.47-3.12a5.28,5.28,0,0,0-3.67-9.86q-.71-1.25-1.52-2.42a32.88,32.88,0,0,1,12.92-4.56,12.12,12.12,0,0,1,3.77,14.18Q113.69,38,112.88,38.28Zm-12.21-5.14c-.32-.7-.67-1.39-1-2.06a4.68,4.68,0,0,1,3.25,8.73A33.71,33.71,0,0,0,100.67,33.13ZM102.33,40a4.69,4.69,0,0,1-3.27-8.78c.38.69.74,1.39,1.07,2.12A33.1,33.1,0,0,1,102.33,40ZM97.49,27.63a32.87,32.87,0,0,0-2.67-3.26,12.13,12.13,0,0,1,15.26-1.31A33.42,33.42,0,0,0,97.49,27.63Zm-.5.32a32.61,32.61,0,0,0-4.57,3.52c-.46.42-.89.86-1.32,1.3a12.11,12.11,0,0,1,3.31-8A32.29,32.29,0,0,1,97,27.95Zm-4.16,4a32,32,0,0,1,4.5-3.47c.51.74,1,1.5,1.45,2.29a5.28,5.28,0,0,0,3.68,9.89,32.6,32.6,0,0,1,.48,3.33q-.64.53-1.26,1.09l-.14.12A12.17,12.17,0,0,1,91.11,33.63C91.66,33,92.23,32.46,92.83,31.9Zm8.1,13.77a14.49,14.49,0,0,1-5.71,2.77c-1.13-1.34-3.3-2.38-6-2.85a14.47,14.47,0,0,1-2.32-3.54q-.35-.76-.73-1.5a32.65,32.65,0,0,1,4.41-6.33A12.78,12.78,0,0,0,100.92,45.67ZM86.33,42.3a15.06,15.06,0,0,0,2,3.16,19.87,19.87,0,0,0-5,0,15.06,15.06,0,0,0,2-3.16c.17-.37.35-.73.53-1.09C86,41.57,86.16,41.94,86.33,42.3Zm-1.61-.25a14.47,14.47,0,0,1-2.32,3.54,10.58,10.58,0,0,0-5.85,2.67,14.49,14.49,0,0,1-5.33-2.7,12.78,12.78,0,0,0,9.83-11.33,32.64,32.64,0,0,1,4.41,6.33Q85.07,41.3,84.72,42.06Zm-14.06,3-.25-.22q-.61-.57-1.24-1.11c.1-1,.25-2,.45-3a5.28,5.28,0,0,0,3.66-9.82q.66-1.16,1.4-2.24a32,32,0,0,1,4.09,3.2c.6.55,1.17,1.13,1.72,1.72A12.18,12.18,0,0,1,70.66,45.08Zm1.43-11.86c.28-.6.58-1.18.89-1.75a4.68,4.68,0,0,1-3.25,8.72A33.05,33.05,0,0,1,72.09,33.21ZM69.17,40a4.69,4.69,0,0,1,3.27-8.78c-.31.57-.61,1.14-.88,1.74A33.66,33.66,0,0,0,69.17,40Zm10-8.54A32.61,32.61,0,0,0,75,28.21a32.26,32.26,0,0,1,2.48-3.07,12.1,12.1,0,0,1,3,7.63C80.07,32.32,79.63,31.89,79.17,31.47Zm-4.65-3.57a33.39,33.39,0,0,0-13-4.83A12.13,12.13,0,0,1,77.1,24.7,32.84,32.84,0,0,0,74.52,27.89ZM59.07,38.51A32.83,32.83,0,0,1,68.53,44c0,.43-.07.86-.09,1.29h-.1a12.19,12.19,0,0,1-11.22-7.45C57.78,38.06,58.43,38.27,59.07,38.51Zm9.27,7.38h.06a14.49,14.49,0,0,1-3.33,8.39A14.49,14.49,0,0,1,55.84,54q-.78-.29-1.58-.54A32.93,32.93,0,0,1,53.58,37q1.42.26,2.83.65A12.78,12.78,0,0,0,68.34,45.9ZM55.63,54.58a15.08,15.08,0,0,0,8.75.51A33.25,33.25,0,0,0,60.61,60a33.25,33.25,0,0,0-5.13,3.85l-.06.05a15.08,15.08,0,0,0-.54-8.57c-.14-.38-.27-.76-.4-1.15C54.86,54.31,55.25,54.44,55.63,54.58Zm-1.31,1a14.5,14.5,0,0,1,.33,9,14.5,14.5,0,0,1-8.47,3.09q-.83,0-1.66.1a32.8,32.8,0,0,1-4.91-8.31,33.29,33.29,0,0,1-1.85-6.23,32,32,0,0,1,5.18-.63A32.83,32.83,0,0,1,53.78,54C53.95,54.49,54.13,55,54.32,55.54ZM46.2,68.24a15.09,15.09,0,0,0,8.15-2.73l0,.08a33.26,33.26,0,0,0-1.62,6.19,33.24,33.24,0,0,0-3.14,5.36,15.09,15.09,0,0,0-3.77-7.91c-.27-.3-.54-.61-.8-.92Zm-.85,1.39a14.49,14.49,0,0,1,3.72,8.46,14.49,14.49,0,0,1-6.71,6.35q-.76.35-1.49.73a32.8,32.8,0,0,1-7.75-5.75A33.23,33.23,0,0,1,28.72,74a32,32,0,0,1,5-2.81,32.83,32.83,0,0,1,10.58-2.81C44.61,68.79,45,69.21,45.34,69.62ZM42.6,85a15.09,15.09,0,0,0,6.54-5.83A33.24,33.24,0,0,0,50,85.27a33.26,33.26,0,0,0-.91,6.36s0,.05,0,.08A15.09,15.09,0,0,0,42.6,86l-1.09-.53C41.87,85.32,42.23,85.14,42.6,85Zm-.25,1.61A14.5,14.5,0,0,1,49,92.71a14.5,14.5,0,0,1-3.8,8.18q-.57.61-1.11,1.24a32.8,32.8,0,0,1-9.35-2.4A33.29,33.29,0,0,1,29,96.64a32,32,0,0,1,3.22-4.11,32.84,32.84,0,0,1,8.66-6.69C41.35,86.09,41.85,86.34,42.35,86.57Zm3.24,14.72a15.09,15.09,0,0,0,3.83-7.69l0,.07a33.26,33.26,0,0,0,3.23,5.54,33.26,33.26,0,0,0,1.56,6A15.09,15.09,0,0,0,46,102.29l-1.21-.08C45,101.9,45.31,101.59,45.59,101.3Zm.38,1.58a14.49,14.49,0,0,1,8.61,3.35,14.49,14.49,0,0,1-.26,9.24c-.19.52-.37,1-.53,1.57a32.81,32.81,0,0,1-9.55,1.42,33.24,33.24,0,0,1-6.94-.74,32,32,0,0,1,1.52-5.49,32.83,32.83,0,0,1,5.5-9.46C44.86,102.81,45.41,102.85,46,102.88Zm8.91,12.79a15.09,15.09,0,0,0,.51-8.75,33.26,33.26,0,0,0,4.93,3.77,33.26,33.26,0,0,0,3.84,5.13l.05.06a14.88,14.88,0,0,0-8.57.54l-1.15.4C54.6,116.43,54.73,116,54.87,115.67Zm1,1.31a14.5,14.5,0,0,1,9-.33,14.5,14.5,0,0,1,3.09,8.47h0a12.78,12.78,0,0,0-11.3,7.66q-1.56.46-3.15.77a32.89,32.89,0,0,1,.77-16C54.79,117.35,55.32,117.17,55.84,117ZM68,125.72c0,.36,0,.71.07,1.06a32.81,32.81,0,0,1-8.31,4.91c-.76.31-1.53.58-2.31.83A12.17,12.17,0,0,1,68,125.72Zm-8,6.53a33.4,33.4,0,0,0,8.16-4.76q.16,1.57.47,3.12a5.28,5.28,0,0,0,3.67,9.86q.71,1.26,1.51,2.45A32.58,32.58,0,0,1,61,147.53a12.12,12.12,0,0,1-3.88-14.26C58,133,59,132.63,60,132.24Zm10.45,4.4A34.11,34.11,0,0,0,72,139.93a4.69,4.69,0,0,1-3.24-8.73A33.61,33.61,0,0,0,70.4,136.64ZM69.26,131a4.69,4.69,0,0,1,3.27,8.78A33.5,33.5,0,0,1,71,136.42,33,33,0,0,1,69.26,131ZM74.1,143.4a33.18,33.18,0,0,0,2.63,3.27A12.12,12.12,0,0,1,61.65,148,33.16,33.16,0,0,0,74.1,143.4Zm.5-.32a33.83,33.83,0,0,0,5.53-4.47l.37-.38a12.11,12.11,0,0,1-3.34,8A32.59,32.59,0,0,1,74.6,143.08Zm5.11-4.89a33.24,33.24,0,0,1-5.45,4.4q-.77-1.13-1.44-2.32a5.28,5.28,0,0,0-3.68-9.9,32.64,32.64,0,0,1-.48-3.33c.43-.35.85-.71,1.26-1.09l.14-.12a12.17,12.17,0,0,1,10.42,11.54C80.23,137.65,80,137.92,79.71,138.19Zm-9-12.86a14.49,14.49,0,0,1,5.71-2.77c1.13,1.34,3.3,2.38,6,2.85a14.47,14.47,0,0,1,2.32,3.54c.23.5.48,1,.74,1.49a32.69,32.69,0,0,1-4.41,6.32A12.78,12.78,0,0,0,70.67,125.33Zm14.59,3.37a15.06,15.06,0,0,0-2-3.16,19.87,19.87,0,0,0,5,0,15.06,15.06,0,0,0-2,3.16c-.17.37-.35.73-.53,1.1C85.61,129.43,85.43,129.07,85.26,128.7Zm1.61.25a14.47,14.47,0,0,1,2.32-3.54A10.58,10.58,0,0,0,95,122.74a14.49,14.49,0,0,1,5.33,2.7,12.78,12.78,0,0,0-9.83,11.31,32.71,32.71,0,0,1-4.41-6.32C86.39,129.95,86.64,129.45,86.87,128.94Zm14.06-3,.25.22c.41.38.82.75,1.24,1.1q-.16,1.51-.45,3a5.28,5.28,0,0,0-3.66,9.82c-.44.78-.9,1.54-1.4,2.27a33.29,33.29,0,0,1-5-4.14c-.27-.27-.52-.54-.78-.81A12.18,12.18,0,0,1,100.93,125.92ZM100,136.6q-.64,1.52-1.41,2.95a4.68,4.68,0,0,1,3.24-8.72A33,33,0,0,1,100,136.6Zm2.4-5.6a4.69,4.69,0,0,1-3.27,8.78q.77-1.43,1.42-3A33.61,33.61,0,0,0,102.43,131Zm-11,7.61a33.89,33.89,0,0,0,5.11,4.2,32.62,32.62,0,0,1-2.45,3.08,12.1,12.1,0,0,1-3-7.67Zm5.62,4.52A33.16,33.16,0,0,0,109.94,148a12.12,12.12,0,0,1-15.42-1.69A33.22,33.22,0,0,0,97.08,143.13ZM111.31,132a32.82,32.82,0,0,1-8.25-5c0-.43.07-.86.09-1.29h.1a12.19,12.19,0,0,1,11.22,7.46A33.53,33.53,0,0,1,111.31,132Zm-8.05-6.9h-.06a14.49,14.49,0,0,1,3.33-8.39,14.49,14.49,0,0,1,9.24.26c.52.19,1,.37,1.57.53A32.92,32.92,0,0,1,118,134q-1.42-.27-2.83-.67A12.78,12.78,0,0,0,103.25,125.1ZM116,116.42a14.91,14.91,0,0,0-8.75-.51A33.25,33.25,0,0,0,111,111a33.26,33.26,0,0,0,5.13-3.84l.06-.05a15.08,15.08,0,0,0,.54,8.57c.14.38.27.77.4,1.15Zm1.31-1a14.5,14.5,0,0,1-.33-9,14.5,14.5,0,0,1,8.47-3.09c.56,0,1.11-.05,1.66-.1a32.84,32.84,0,0,1,5.38,9.53,32,32,0,0,1,1.37,5,33.29,33.29,0,0,1-6.47.63,32.8,32.8,0,0,1-9.55-1.42C117.64,116.51,117.47,116,117.28,115.46Zm8.12-12.7a15.09,15.09,0,0,0-8.15,2.73l0-.08a33.26,33.26,0,0,0,1.63-6.2A33.24,33.24,0,0,0,122,93.87a15.09,15.09,0,0,0,3.77,7.91c.27.3.54.61.8.92Zm.85-1.39a14.49,14.49,0,0,1-3.72-8.46,14.49,14.49,0,0,1,6.71-6.35c.5-.23,1-.48,1.49-.74a32.84,32.84,0,0,1,8.66,6.69A32,32,0,0,1,142.87,97a33.24,33.24,0,0,1-6.15,3.3,32.81,32.81,0,0,1-9.37,2.29Q126.81,102,126.25,101.38Zm13.58-9.25a33.43,33.43,0,0,0-8.48-6.62,33.41,33.41,0,0,0,7.55-5.67,33.89,33.89,0,0,0,4.19-5.1A32.89,32.89,0,0,1,153,86a32.6,32.6,0,0,1-9.63,10.7A32.6,32.6,0,0,0,139.83,92.13Zm3.59-17.89a33.18,33.18,0,0,0,5-13.9,33.71,33.71,0,0,1,8.75,11.36,33,33,0,0,1-2.55,10.93c-.4,1-.85,1.88-1.33,2.78A33.47,33.47,0,0,0,143.42,74.23Zm-.49-.34a32.61,32.61,0,0,0-4.6-2.63A33.43,33.43,0,0,0,128,68.32a33.42,33.42,0,0,0,4.86-8.1,33.84,33.84,0,0,0,2-6.79,32.92,32.92,0,0,1,13,6.45A32.6,32.6,0,0,1,142.93,73.89Zm-8.51-21.17a32.6,32.6,0,0,0-5.73-.74A33.44,33.44,0,0,0,118,53.29a33.55,33.55,0,0,0,.69-15.93,32.33,32.33,0,0,1,5.36-.45,33.23,33.23,0,0,1,9.61,1.43A32.6,32.6,0,0,1,134.42,52.72ZM118.57,36.79a33.35,33.35,0,0,0-1.89-5.94,5.27,5.27,0,0,0,4-7.12,33.41,33.41,0,0,1,5.9,1.53,33,33,0,0,1,5.92,9.52c.39,1,.73,1.92,1,2.9A33.47,33.47,0,0,0,118.57,36.79Zm1.84-11.14a4.68,4.68,0,0,1-4.19,4.66l-.4,0,.16.37a32.8,32.8,0,0,1,2,6.16c-.93.17-1.85.39-2.77.65a12.67,12.67,0,0,0-3.65-14.07,33.23,33.23,0,0,1,8.37.14A4.65,4.65,0,0,1,120.41,25.65ZM112,22.83a4.67,4.67,0,0,1,7.58.14A34.46,34.46,0,0,0,112,22.83Zm-1.07.11a12.69,12.69,0,0,0-16.49,1A33.79,33.79,0,0,0,86.83,18a33.72,33.72,0,0,1,13.5-3.67,33,33,0,0,1,10.84,8.55ZM94,24.36a12.71,12.71,0,0,0-3.52,8.77c0,.09,0,.18,0,.27a33.25,33.25,0,0,0-4.7,6.54,33.25,33.25,0,0,0-4.7-6.54c0-.09,0-.18,0-.27a12.7,12.7,0,0,0-3.2-8.43,33.16,33.16,0,0,1,8.3-6.34A33.2,33.2,0,0,1,94,24.36Zm-16.5-.09a12.7,12.7,0,0,0-16.83-1.32l-.25,0a33,33,0,0,1,11.23-8.75A33.71,33.71,0,0,1,85.58,18,33.75,33.75,0,0,0,77.51,24.27Zm-21.07-1a33.81,33.81,0,0,1,3.59.2A12.73,12.73,0,0,0,56.16,37c-.81-.22-1.63-.39-2.44-.54a32.83,32.83,0,0,1,1.89-5.69l.16-.37-.4,0a4.68,4.68,0,0,1-3.71-6.71A33.85,33.85,0,0,1,56.44,23.27ZM52,23a4.67,4.67,0,0,1,7.58-.14A34.45,34.45,0,0,0,52,23Zm2.88,7.88a33.38,33.38,0,0,0-1.78,5.46,33.5,33.5,0,0,0-14.44.79c.31-1,.66-1.94,1.06-2.89a33,33,0,0,1,5.75-9.12A33.44,33.44,0,0,1,51,23.72a5.27,5.27,0,0,0,4,7.12Zm-1.91,6a33.46,33.46,0,0,0,.58,16.4A33.4,33.4,0,0,0,42.91,52a32.61,32.61,0,0,0-5.26.64,32.6,32.6,0,0,1,.84-14.84A32.93,32.93,0,0,1,53,36.89ZM37.17,53.33a33.89,33.89,0,0,0,1.89,6.33,33.4,33.4,0,0,0,4.76,8.16,33.44,33.44,0,0,0-10.38,2.81,32.6,32.6,0,0,0-5,2.85,32.6,32.6,0,0,1-4.73-13.6A32.89,32.89,0,0,1,37.17,53.33ZM27.91,73.82a33.5,33.5,0,0,0-9.64,10.76c-.47-.91-.9-1.83-1.29-2.79a33,33,0,0,1-2.38-10.5,33.72,33.72,0,0,1,8.54-11A33.18,33.18,0,0,0,27.91,73.82Zm.32.5a33.84,33.84,0,0,0,4.46,5.51,33.4,33.4,0,0,0,7.55,5.67,33.44,33.44,0,0,0-8.48,6.62A32.61,32.61,0,0,0,28.5,96.3,32.6,32.6,0,0,1,18.6,85.2,32.92,32.92,0,0,1,28.23,74.32Zm0,22.48a33.47,33.47,0,0,0-5,14.07c-.78-.65-1.54-1.34-2.27-2.07a33,33,0,0,1-6.48-9.16,33.71,33.71,0,0,1,3.82-13.82A33.18,33.18,0,0,0,28.18,96.8Zm.48.34a33.89,33.89,0,0,0,5.81,3.14,33.42,33.42,0,0,0,9.14,2.4A33.43,33.43,0,0,0,38.25,112a32.6,32.6,0,0,0-1.54,5.57,32.6,32.6,0,0,1-13-6.27A32.89,32.89,0,0,1,28.66,97.14Zm8.52,21.16a33.84,33.84,0,0,0,7.05.75,33.41,33.41,0,0,0,9.35-1.33,33.55,33.55,0,0,0-.68,15.94,32.6,32.6,0,0,1-14.83-.85A32.92,32.92,0,0,1,37.18,118.3ZM47.3,134.74a33.18,33.18,0,0,0,5.73-.51,33.36,33.36,0,0,0,1.88,5.92A5.28,5.28,0,0,0,51,147.39a32.69,32.69,0,0,1-5.65-1.45,33.71,33.71,0,0,1-7.07-12.47A33.27,33.27,0,0,0,47.3,134.74Zm3.88,10.61a4.68,4.68,0,0,1,4.19-4.66l.4,0-.16-.37a32.8,32.8,0,0,1-2-6.14c.93-.18,1.85-.4,2.76-.66a12.68,12.68,0,0,0,3.76,14.16h-.07l0-.05,0,.06a33.51,33.51,0,0,1-3.56.2h0a33.43,33.43,0,0,1-4.69-.33A4.66,4.66,0,0,1,51.18,145.35Zm5.22,3.09h0c1,0,2.08-.05,3.11-.15a4.67,4.67,0,0,1-7.39-.13A34.05,34.05,0,0,0,56.41,148.44Zm4.39-.29a12.69,12.69,0,0,0,16.34-1,33.25,33.25,0,0,0,7.64,6c-.87.45-1.77.87-2.69,1.24a33,33,0,0,1-10.66,2.4,33,33,0,0,1-10.91-8.54Zm16.76-1.47a12.71,12.71,0,0,0,3.55-8.81c0-.09,0-.18,0-.27a33.32,33.32,0,0,0,4.7-6.55,33.33,33.33,0,0,0,4.7,6.55c0,.09,0,.18,0,.27a12.7,12.7,0,0,0,3.24,8.46,32.67,32.67,0,0,1-8.33,6.42A32.68,32.68,0,0,1,77.56,146.68Zm16.57.1a12.7,12.7,0,0,0,16.67,1.37l.28,0a33,33,0,0,1-11.32,8.74,33,33,0,0,1-11.08-2.56c-.91-.39-1.8-.81-2.67-1.27A33.24,33.24,0,0,0,94.12,146.77Zm21.06,1.07h0a33.52,33.52,0,0,1-3.57-.2l0-.06,0,.05h-.07a12.74,12.74,0,0,0,4-13.59q1.21.33,2.44.56a32.83,32.83,0,0,1-1.88,5.67l-.16.37.4,0a4.68,4.68,0,0,1,3.65,6.82A33.43,33.43,0,0,1,115.19,147.84Zm4.28.31a4.67,4.67,0,0,1-7.39.13c1,.09,2.06.15,3.11.15h0A34.05,34.05,0,0,0,119.47,148.16Zm-2.79-8a33.38,33.38,0,0,0,1.77-5.45,32.75,32.75,0,0,0,14.28-.66,33.72,33.72,0,0,1-6.92,12,32.7,32.7,0,0,1-5.22,1.31,5.28,5.28,0,0,0-3.91-7.24Zm1.9-6a33.45,33.45,0,0,0-.58-16.42,33.41,33.41,0,0,0,9.35,1.33,33.89,33.89,0,0,0,6.57-.64,32.89,32.89,0,0,1-1,15A32.6,32.6,0,0,1,118.59,134.13Zm15.82-16.44a32.61,32.61,0,0,0-1.39-5.11,33.45,33.45,0,0,0-5.24-9.4,33.39,33.39,0,0,0,9.16-2.29,33.84,33.84,0,0,0,6.25-3.35,32.92,32.92,0,0,1,4.65,13.77A32.6,32.6,0,0,1,134.41,117.69Zm9.27-20.49a33.18,33.18,0,0,0,9.64-10.57A33.72,33.72,0,0,1,156.94,100a33,33,0,0,1-6.28,8.75c-.73.73-1.49,1.42-2.27,2.07A33.5,33.5,0,0,0,143.68,97.21Zm11.13-39.81a32.88,32.88,0,0,1,2.44,13.06,34.35,34.35,0,0,0-8.7-10.81,34.13,34.13,0,0,0,.19-3.53,33.66,33.66,0,0,0-1.45-9.8A32.31,32.31,0,0,1,154.81,57.39ZM138.48,32.81A32.86,32.86,0,0,1,146,44.33a34.37,34.37,0,0,0-11.81-6.45A34.13,34.13,0,0,0,133,34.54a33.63,33.63,0,0,0-5.32-8.86A32.29,32.29,0,0,1,138.48,32.81ZM102.17,14.3a32.29,32.29,0,0,1,12.56,2.53,32.88,32.88,0,0,1,11,7.51,34.09,34.09,0,0,0-5.35-1.26,5.28,5.28,0,0,0-8.79-.64,33.6,33.6,0,0,0-10-8.12ZM85.8,11h0a32.9,32.9,0,0,1,13.42,2.86,34.37,34.37,0,0,0-13,3.85,34.35,34.35,0,0,0-13.39-4A32.9,32.9,0,0,1,85.8,11Zm-28.1,5.5a32.29,32.29,0,0,1,12.73-2.37,33.58,33.58,0,0,0-10.37,8.31,5.28,5.28,0,0,0-8.79.64,34.12,34.12,0,0,0-4.94,1.13A32.86,32.86,0,0,1,57.7,16.48ZM33.11,32.81a32.3,32.3,0,0,1,11.23-7.29A33.67,33.67,0,0,0,39.21,34,34.14,34.14,0,0,0,38,37.3a34.35,34.35,0,0,0-12.22,6.59A32.88,32.88,0,0,1,33.11,32.81Zm-16,23.76A32.28,32.28,0,0,1,24.44,45.9a33.63,33.63,0,0,0-1.58,10.21A34.14,34.14,0,0,0,23,59.64a34.37,34.37,0,0,0-8.51,10.42A32.85,32.85,0,0,1,17.13,56.57ZM11.28,85.5a32.3,32.3,0,0,1,2.79-13.09A33.66,33.66,0,0,0,16.42,82a34.13,34.13,0,0,0,1.5,3.2,34.35,34.35,0,0,0-4,13.3A32.88,32.88,0,0,1,11.28,85.5Zm5.5,28.1a32.28,32.28,0,0,1-2.37-12.71,33.63,33.63,0,0,0,6.1,8.34,34.14,34.14,0,0,0,2.63,2.36A34.37,34.37,0,0,0,24.49,125,32.86,32.86,0,0,1,16.78,113.6ZM33.1,138.19A32.29,32.29,0,0,1,25.82,127a33.66,33.66,0,0,0,8.46,5.13,34.13,34.13,0,0,0,3.32,1.2,34.35,34.35,0,0,0,6.59,12.22A32.88,32.88,0,0,1,33.1,138.19Zm23.76,16a32.28,32.28,0,0,1-10.66-7.31,33.32,33.32,0,0,0,5.14,1.2,5.27,5.27,0,0,0,8.72.52,33.59,33.59,0,0,0,10.13,8.19A32.86,32.86,0,0,1,56.86,154.17ZM85.8,160h0a32.9,32.9,0,0,1-13.24-2.78,33.65,33.65,0,0,0,9.76-2.36q1.58-.65,3.08-1.44,1.48.81,3.06,1.47a33.61,33.61,0,0,0,10.16,2.52A32.91,32.91,0,0,1,85.8,160Zm28.1-5.5A32.88,32.88,0,0,1,101,157a33.57,33.57,0,0,0,10.52-8.38,5.27,5.27,0,0,0,8.72-.52A33.36,33.36,0,0,0,125,147,32.3,32.3,0,0,1,113.9,154.51Zm24.59-16.32A32.86,32.86,0,0,1,127,145.67a34.37,34.37,0,0,0,6.45-11.81,34.13,34.13,0,0,0,3.34-1.16,33.63,33.63,0,0,0,8.86-5.31A32.28,32.28,0,0,1,138.49,138.19Zm16-23.76a32.88,32.88,0,0,1-7.51,11,34.35,34.35,0,0,0,1.49-13.8,34.14,34.14,0,0,0,2.63-2.36,33.66,33.66,0,0,0,5.9-7.94A32.3,32.3,0,0,1,154.47,114.43Z"/><rect class="cls-1" y="64.13" width="171" height="42.75"/><path class="cls-3" d="M54.9,85.33v1.2c0,5-1.8,7-4.67,7s-4.9-2.1-4.9-7V84.65c0-5,2-7.11,4.9-7.11,2.64,0,4.26,1.76,4.65,5H52.4c-.23-1.8-.88-2.75-2.17-2.75-1.53,0-2.28,1.35-2.28,4.71v2c0,3.36.74,4.71,2.28,4.71s2.08-1.13,2.17-3.63H50.28V85.33Z"/><path class="cls-3" d="M59,86.52v-2c0-4.9,2-7,4.9-7s4.9,2.1,4.9,7v2c0,4.9-2,7-4.9,7S59,91.42,59,86.52Zm2.62-2v2c0,3.36.74,4.74,2.28,4.74s2.28-1.38,2.28-4.74v-2c0-3.36-.74-4.74-2.28-4.74S61.61,81.17,61.61,84.54Z"/><path class="cls-3" d="M88.75,77.75V80h-3.5V93.31H82.63V80h-3.5V77.75Z"/><path class="cls-3" d="M95.38,93.31H92.76V77.75h2.62Z"/><path class="cls-3" d="M106.78,86.54l3.47-8.8h2.57V93.31H110.2V84.17l-2.55,6.14h-1.74l-2.57-6.07v9.07h-2.62V77.75h2.55Z"/><path class="cls-3" d="M125.91,77.75V80h-5.3v4.11h4.74v2.26h-4.74v4.67h5.3v2.26H118V77.75Z"/><path class="cls-3" d="M153.57,17.8a1.54,1.54,0,1,0-1.24,2.48,1.59,1.59,0,0,0,1.26-.68l.78.73a2.61,2.61,0,1,1-2-4.22,2.57,2.57,0,0,1,2,1Z"/><path class="cls-4" d="M152.29,26.72h-.16a8,8,0,0,1-5.73-2.57,8,8,0,0,1,0-10.89A8,8,0,0,1,158,13a.22.22,0,1,1-.31.31,7.58,7.58,0,0,0-10.93.21,7.61,7.61,0,0,0,0,10.3,7.58,7.58,0,0,0,10.93.21.22.22,0,1,1,.31.31A8,8,0,0,1,152.29,26.72Z"/><path class="cls-5" d="M152.28,24.12h-.18a5.42,5.42,0,0,1,0-10.83,5.44,5.44,0,0,1,4,1.58.22.22,0,0,1-.31.31,5,5,0,0,0-3.7-1.46,5,5,0,0,0,0,10,5,5,0,0,0,3.7-1.46.22.22,0,1,1,.31.31A5.44,5.44,0,0,1,152.28,24.12Z"/></g></g></svg>