<svg xmlns="http://www.w3.org/2000/svg" xmlns:xlink="http://www.w3.org/1999/xlink" viewBox="0 0 608 272"><defs><style>.cls-1,.cls-2,.cls-3,.cls-4,.cls-5{fill:#010101;}.cls-1,.cls-19,.cls-20,.cls-31,.cls-6,.cls-9{opacity:0.25;}.cls-13,.cls-2,.cls-24,.cls-32,.cls-7{opacity:0;}.cls-10,.cls-12,.cls-25,.cls-3,.cls-30,.cls-33,.cls-36,.cls-8{opacity:0.5;}.cls-14,.cls-15,.cls-17,.cls-22,.cls-27,.cls-5{opacity:0.75;}.cls-6{fill:url(#linear-gradient);}.cls-7{fill:url(#linear-gradient-2);}.cls-8{fill:url(#linear-gradient-3);}.cls-9{fill:url(#linear-gradient-4);}.cls-10{fill:url(#linear-gradient-5);}.cls-11{fill:url(#linear-gradient-6);}.cls-12{fill:url(#linear-gradient-7);}.cls-13{fill:url(#linear-gradient-8);}.cls-14{fill:url(#linear-gradient-9);}.cls-15{fill:url(#linear-gradient-10);}.cls-16{fill:url(#linear-gradient-11);}.cls-17{fill:url(#linear-gradient-12);}.cls-18{fill:url(#linear-gradient-13);}.cls-19{fill:url(#linear-gradient-14);}.cls-20{fill:url(#linear-gradient-15);}.cls-21{fill:url(#linear-gradient-16);}.cls-22{fill:url(#linear-gradient-17);}.cls-23{fill:url(#linear-gradient-18);}.cls-24{fill:url(#linear-gradient-19);}.cls-25{fill:url(#linear-gradient-20);}.cls-26{fill:url(#linear-gradient-21);}.cls-27{fill:url(#linear-gradient-22);}.cls-28{fill:url(#linear-gradient-23);}.cls-29{fill:url(#linear-gradient-24);}.cls-30{fill:url(#linear-gradient-25);}.cls-31{fill:url(#linear-gradient-26);}.cls-32{fill:url(#linear-gradient-27);}.cls-33{fill:url(#linear-gradient-28);}.cls-34{opacity:0.1;}.cls-35{mask:url(#mask);}.cls-36,.cls-38{fill:#fff;}.cls-37{mask:url(#mask-2);}.cls-39{filter:url(#luminosity-invert);}</style><linearGradient id="linear-gradient" x1="465.85" y1="116.34" x2="571.61" y2="116.34" gradientUnits="userSpaceOnUse"><stop offset="0" stop-color="#fff"/><stop offset="1" stop-color="#231f20"/></linearGradient><linearGradient id="linear-gradient-2" x1="63.66" y1="51.17" x2="545.52" y2="51.17" xlink:href="#linear-gradient"/><linearGradient id="linear-gradient-3" x1="509.36" y1="61.54" x2="571.61" y2="61.54" xlink:href="#linear-gradient"/><linearGradient id="linear-gradient-4" x1="86.68" y1="111.15" x2="152.02" y2="111.15" xlink:href="#linear-gradient"/><linearGradient id="linear-gradient-5" x1="86.68" y1="160.85" x2="152.02" y2="160.85" xlink:href="#linear-gradient"/><linearGradient id="linear-gradient-6" x1="44.62" y1="177.7" x2="152.02" y2="177.7" xlink:href="#linear-gradient"/><linearGradient id="linear-gradient-7" x1="44.62" y1="76.02" x2="152.02" y2="76.02" xlink:href="#linear-gradient"/><linearGradient id="linear-gradient-8" x1="564.56" y1="205.67" x2="608" y2="205.67" xlink:href="#linear-gradient"/><linearGradient id="linear-gradient-9" x1="548.15" y1="245.7" x2="608" y2="245.7" xlink:href="#linear-gradient"/><linearGradient id="linear-gradient-10" x1="143.33" y1="141.18" x2="513.23" y2="141.18" xlink:href="#linear-gradient"/><linearGradient id="linear-gradient-11" x1="63.66" y1="195.98" x2="501.12" y2="195.98" xlink:href="#linear-gradient"/><linearGradient id="linear-gradient-12" x1="152.02" y1="76.1" x2="513.23" y2="76.1" xlink:href="#linear-gradient"/><linearGradient id="linear-gradient-13" x1="143.33" y1="111.15" x2="513.23" y2="111.15" xlink:href="#linear-gradient"/><linearGradient id="linear-gradient-14" x1="0" y1="221" x2="501.12" y2="221" xlink:href="#linear-gradient"/><linearGradient id="linear-gradient-15" x1="0" y1="157.09" x2="86.68" y2="157.09" xlink:href="#linear-gradient"/><linearGradient id="linear-gradient-16" x1="0" y1="93.5" x2="86.68" y2="93.5" xlink:href="#linear-gradient"/><linearGradient id="linear-gradient-17" x1="0" y1="26.3" x2="63.66" y2="26.3" xlink:href="#linear-gradient"/><linearGradient id="linear-gradient-18" x1="499.17" y1="263.98" x2="608" y2="263.98" xlink:href="#linear-gradient"/><linearGradient id="linear-gradient-19" x1="1.18" y1="8.02" x2="63.66" y2="8.02" xlink:href="#linear-gradient"/><linearGradient id="linear-gradient-20" x1="436.62" y1="245.7" x2="564.56" y2="245.7" xlink:href="#linear-gradient"/><linearGradient id="linear-gradient-21" x1="545.52" y1="53.53" x2="608" y2="53.53" xlink:href="#linear-gradient"/><linearGradient id="linear-gradient-22" x1="465.85" y1="177.7" x2="608" y2="177.7" xlink:href="#linear-gradient"/><linearGradient id="linear-gradient-23" x1="465.85" y1="141.99" x2="608" y2="141.99" xlink:href="#linear-gradient"/><linearGradient id="linear-gradient-24" x1="436.62" y1="221" x2="564.56" y2="221" xlink:href="#linear-gradient"/><linearGradient id="linear-gradient-25" x1="571.61" y1="111.6" x2="608" y2="111.6" xlink:href="#linear-gradient"/><linearGradient id="linear-gradient-26" x1="63.66" y1="8.02" x2="608" y2="8.02" xlink:href="#linear-gradient"/><linearGradient id="linear-gradient-27" x1="0" y1="245.46" x2="63.66" y2="245.46" xlink:href="#linear-gradient"/><linearGradient id="linear-gradient-28" x1="44.62" y1="220.83" x2="152.02" y2="220.83" xlink:href="#linear-gradient"/><filter id="luminosity-invert" filterUnits="userSpaceOnUse" color-interpolation-filters="sRGB"><feColorMatrix values="-1 0 0 0 1 0 -1 0 0 1 0 0 -1 0 1 0 0 0 1 0"/></filter><mask id="mask" x="0" y="0" width="608" height="272" maskUnits="userSpaceOnUse"><g class="cls-39"><polygon class="cls-1" points="513.23 96.67 465.85 136 571.61 107.06 568.96 106.58 513.23 96.67"/><polygon class="cls-2" points="509.36 55.53 545.52 16.03 63.66 16.03 152.02 86.31 509.36 55.53"/><polygon class="cls-3" points="513.23 96.67 568.96 106.58 571.61 107.06 545.52 16.03 509.36 55.53 513.23 96.67"/><polygon class="cls-1" points="152.02 86.31 86.68 136 143.33 136 152.02 86.31"/><polygon class="cls-3" points="143.33 136 86.68 136 152.02 185.69 143.33 136"/><polygon class="cls-4" points="86.68 136 44.62 219.41 152.02 185.69 86.68 136"/><polygon class="cls-3" points="63.66 16.03 44.62 52.59 86.68 136 152.02 86.31 63.66 16.03"/><polygon class="cls-2" points="608 234.4 608 176.93 564.56 219.41 608 234.4"/><polygon class="cls-5" points="548.15 255.97 608 272 608 272 608 234.4 564.56 219.41 548.15 255.97"/><polygon class="cls-5" points="143.33 136 152.02 185.69 465.85 136 513.23 96.67 143.33 136"/><polygon class="cls-4" points="63.66 255.97 501.13 170 465.85 136 152.02 185.69 63.66 255.97"/><polygon class="cls-5" points="509.36 55.53 152.02 86.31 513.23 96.67 509.36 55.53"/><polygon class="cls-4" points="152.02 86.31 143.33 136 513.23 96.67 152.02 86.31"/><polygon class="cls-1" points="63.66 255.97 0 271.51 0 272 436.62 272 501.13 170 63.66 255.97"/><polygon class="cls-1" points="44.62 219.41 86.68 136 0 94.64 0 219.55 44.62 219.41"/><polygon class="cls-4" points="44.62 52.59 1.18 51 0 51.06 0 94.64 86.68 136 44.62 52.59"/><polygon class="cls-5" points="44.62 52.59 63.66 16.03 1.18 0 0 0 0 51.06 1.18 51 44.62 52.59"/><polygon class="cls-4" points="548.15 255.97 499.18 272 608 272 548.15 255.97"/><polygon class="cls-2" points="63.66 0 1.18 0 63.66 16.03 63.66 0"/><polygon class="cls-3" points="564.56 219.41 436.62 272 499.18 272 548.15 255.97 564.56 219.41"/><polygon class="cls-4" points="571.61 107.06 608 74.1 608 0 545.52 16.03 571.61 107.06"/><polygon class="cls-5" points="465.85 136 501.13 170 564.56 219.41 608 176.93 572.43 166.69 465.85 136"/><polygon class="cls-4" points="465.85 136 572.43 166.69 608 176.93 608 149.11 571.61 107.06 465.85 136"/><polygon class="cls-4" points="436.62 272 564.56 219.41 501.13 170 436.62 272"/><polygon class="cls-3" points="608 149.11 608 74.1 571.61 107.06 608 149.11"/><polygon class="cls-1" points="545.52 16.03 608 0 63.66 0 63.66 16.03 545.52 16.03"/><polygon class="cls-2" points="0 219.55 0 271.51 63.66 255.97 44.62 219.41 0 219.55"/><polygon class="cls-3" points="44.62 219.41 63.66 255.97 152.02 185.69 44.62 219.41"/></g></mask><mask id="mask-2" x="0" y="0" width="608" height="272" maskUnits="userSpaceOnUse"><g class="cls-39"><polygon class="cls-6" points="513.23 96.67 465.85 136 571.61 107.06 568.96 106.58 513.23 96.67"/><polygon class="cls-7" points="509.36 55.53 545.52 16.03 63.66 16.03 152.02 86.31 509.36 55.53"/><polygon class="cls-8" points="513.23 96.67 568.96 106.58 571.61 107.06 545.52 16.03 509.36 55.53 513.23 96.67"/><polygon class="cls-9" points="152.02 86.31 86.68 136 143.33 136 152.02 86.31"/><polygon class="cls-10" points="143.33 136 86.68 136 152.02 185.69 143.33 136"/><polygon class="cls-11" points="86.68 136 44.62 219.41 152.02 185.69 86.68 136"/><polygon class="cls-12" points="63.66 16.03 44.62 52.59 86.68 136 152.02 86.31 63.66 16.03"/><polygon class="cls-13" points="608 234.4 608 176.93 564.56 219.41 608 234.4"/><polygon class="cls-14" points="548.15 255.97 608 272 608 272 608 234.4 564.56 219.41 548.15 255.97"/><polygon class="cls-15" points="143.33 136 152.02 185.69 465.85 136 513.23 96.67 143.33 136"/><polygon class="cls-16" points="63.66 255.97 501.13 170 465.85 136 152.02 185.69 63.66 255.97"/><polygon class="cls-17" points="509.36 55.53 152.02 86.31 513.23 96.67 509.36 55.53"/><polygon class="cls-18" points="152.02 86.31 143.33 136 513.23 96.67 152.02 86.31"/><polygon class="cls-19" points="63.66 255.97 0 271.51 0 272 436.62 272 501.13 170 63.66 255.97"/><polygon class="cls-20" points="44.62 219.41 86.68 136 0 94.64 0 219.55 44.62 219.41"/><polygon class="cls-21" points="44.62 52.59 1.18 51 0 51.06 0 94.64 86.68 136 44.62 52.59"/><polygon class="cls-22" points="44.62 52.59 63.66 16.03 1.18 0 0 0 0 51.06 1.18 51 44.62 52.59"/><polygon class="cls-23" points="548.15 255.97 499.18 272 608 272 548.15 255.97"/><polygon class="cls-24" points="63.66 0 1.18 0 63.66 16.03 63.66 0"/><polygon class="cls-25" points="564.56 219.41 436.62 272 499.18 272 548.15 255.97 564.56 219.41"/><polygon class="cls-26" points="571.61 107.06 608 74.1 608 0 545.52 16.03 571.61 107.06"/><polygon class="cls-27" points="465.85 136 501.13 170 564.56 219.41 608 176.93 572.43 166.69 465.85 136"/><polygon class="cls-28" points="465.85 136 572.43 166.69 608 176.93 608 149.11 571.61 107.06 465.85 136"/><polygon class="cls-29" points="436.62 272 564.56 219.41 501.13 170 436.62 272"/><polygon class="cls-30" points="608 149.11 608 74.1 571.61 107.06 608 149.11"/><polygon class="cls-31" points="545.52 16.03 608 0 63.66 0 63.66 16.03 545.52 16.03"/><polygon class="cls-32" points="0 219.55 0 271.51 63.66 255.97 44.62 219.41 0 219.55"/><polygon class="cls-33" points="44.62 219.41 63.66 255.97 152.02 185.69 44.62 219.41"/></g></mask></defs><title>mosiac</title><g id="Layer_2" data-name="Layer 2"><g id="Layer_1-2" data-name="Layer 1"><g class="cls-34"><g class="cls-35"><rect class="cls-36" width="608" height="272"/></g><g class="cls-37"><rect class="cls-38" width="608" height="272"/></g></g></g></g></svg>