<svg xmlns="http://www.w3.org/2000/svg" xmlns:xlink="http://www.w3.org/1999/xlink" viewBox="0 0 171 171"><defs><style>.cls-1{fill:#121921;}.cls-2{fill:#fff;}.cls-3{fill:url(#New_Gradient_Swatch_13);}.cls-4{fill:url(#linear-gradient);}.cls-5{fill:url(#New_Gradient_Swatch_3);}</style><linearGradient id="New_Gradient_Swatch_13" x1="144.28" y1="18.7" x2="158.02" y2="18.7" gradientUnits="userSpaceOnUse"><stop offset="0" stop-color="#fece0d" stop-opacity="0"/><stop offset="1" stop-color="#fece0d"/></linearGradient><linearGradient id="linear-gradient" x1="146.87" y1="18.7" x2="156.18" y2="18.7" gradientUnits="userSpaceOnUse"><stop offset="0" stop-color="#fece0d"/><stop offset="1" stop-color="#fece0d" stop-opacity="0"/></linearGradient><linearGradient id="New_Gradient_Swatch_3" x1="32.69" y1="32.69" x2="138.91" y2="138.91" gradientUnits="userSpaceOnUse"><stop offset="0" stop-color="#ffe390"/><stop offset="1" stop-color="#fece0d"/></linearGradient></defs><title>polyglot-cover-art</title><g id="Layer_2" data-name="Layer 2"><g id="Layer_1-2" data-name="Layer 1"><rect class="cls-1" width="171" height="171"/><path class="cls-2" d="M153.57,17.8a1.54,1.54,0,1,0-1.24,2.48,1.59,1.59,0,0,0,1.26-.68l.78.73a2.61,2.61,0,1,1-2-4.22,2.57,2.57,0,0,1,2,1Z"/><path class="cls-3" d="M152.29,26.72h-.16a8,8,0,0,1-5.73-2.57,8,8,0,0,1,0-10.89A8,8,0,0,1,158,13a.22.22,0,1,1-.31.31,7.58,7.58,0,0,0-10.93.21,7.61,7.61,0,0,0,0,10.3,7.58,7.58,0,0,0,10.93.21.22.22,0,1,1,.31.31A8,8,0,0,1,152.29,26.72Z"/><path class="cls-4" d="M152.28,24.12h-.18a5.42,5.42,0,0,1,0-10.83,5.44,5.44,0,0,1,4,1.58.22.22,0,0,1-.31.31,5,5,0,0,0-3.7-1.46,5,5,0,0,0,0,10,5,5,0,0,0,3.7-1.46.22.22,0,1,1,.31.31A5.44,5.44,0,0,1,152.28,24.12Z"/><path class="cls-5" d="M152.08,113.18a46.9,46.9,0,0,0,0-54.77,47.06,47.06,0,0,0-38.9-38.9,46.9,46.9,0,0,0-54.77,0,47.06,47.06,0,0,0-38.9,38.9,46.9,46.9,0,0,0,0,54.77,47.06,47.06,0,0,0,38.9,38.9,46.9,46.9,0,0,0,54.77,0,47.06,47.06,0,0,0,38.9-38.9Zm8.23-27.39a46.19,46.19,0,0,1-8,26.1,47.74,47.74,0,0,0,.42-6.26,46.9,46.9,0,0,0-4.37-19.84A46.9,46.9,0,0,0,152.69,66a47.74,47.74,0,0,0-.42-6.26A46.19,46.19,0,0,1,160.31,85.8ZM19.5,105.63A46.32,46.32,0,0,1,23.61,86.5a47.37,47.37,0,0,0,16,18.44,46.83,46.83,0,0,0,1.75,24.32,46.69,46.69,0,0,1-21.27-16.31A47.07,47.07,0,0,1,19.5,105.63Zm.58-47A46.69,46.69,0,0,1,41.35,42.33,46.83,46.83,0,0,0,39.6,66.65a47.37,47.37,0,0,0-16,18.44A46.32,46.32,0,0,1,19.5,66,47.07,47.07,0,0,1,20.08,58.65ZM152.1,66A46.32,46.32,0,0,1,148,85.09a47.37,47.37,0,0,0-16-18.44,46.83,46.83,0,0,0-1.75-24.32,46.69,46.69,0,0,1,21.27,16.31A47.06,47.06,0,0,1,152.1,66ZM99.82,130.09a46.35,46.35,0,0,1-13.54-6.92,47.44,47.44,0,0,0,10.41-11,47.11,47.11,0,0,0,15.21.43A46,46,0,0,1,107.23,127,46.16,46.16,0,0,1,99.82,130.09Zm6.92-2.17c-.64,1.17-1.33,2.31-2.07,3.43-1.31-.26-2.6-.59-3.87-1A46.75,46.75,0,0,0,106.74,127.91ZM64.36,127a46,46,0,0,1-4.67-14.41,47.11,47.11,0,0,0,15.21-.43,47.44,47.44,0,0,0,10.41,11,46.36,46.36,0,0,1-13.54,6.92A46.17,46.17,0,0,1,64.36,127Zm6.42,3.38c-1.27.37-2.55.7-3.87,1-.74-1.11-1.43-2.26-2.07-3.43A46.75,46.75,0,0,0,70.78,130.38ZM41.51,99.82a46.36,46.36,0,0,1,6.92-13.54,47.44,47.44,0,0,0,11,10.41A47.1,47.1,0,0,0,59,111.9a46,46,0,0,1-14.41-4.67A46.17,46.17,0,0,1,41.51,99.82Zm2.17,6.92c-1.17-.64-2.31-1.33-3.43-2.07.26-1.31.59-2.6,1-3.86A46.75,46.75,0,0,0,43.68,106.74Zm.92-42.38A46,46,0,0,1,59,59.69a47.1,47.1,0,0,0,.43,15.21,47.44,47.44,0,0,0-11,10.41,46.36,46.36,0,0,1-6.92-13.54A46.17,46.17,0,0,1,44.6,64.36Zm-3.38,6.42c-.37-1.27-.7-2.55-1-3.86,1.11-.74,2.26-1.43,3.43-2.07A46.75,46.75,0,0,0,41.21,70.78ZM71.77,41.51a46.36,46.36,0,0,1,13.54,6.92,47.44,47.44,0,0,0-10.41,11A47.11,47.11,0,0,0,59.69,59,46,46,0,0,1,64.36,44.6,46.17,46.17,0,0,1,71.77,41.51Zm-6.92,2.17c.64-1.17,1.33-2.31,2.07-3.43,1.31.26,2.6.59,3.87,1A46.75,46.75,0,0,0,64.85,43.68Zm42.38.92A46,46,0,0,1,111.9,59a47.11,47.11,0,0,0-15.21.43,47.44,47.44,0,0,0-10.41-11,46.35,46.35,0,0,1,13.54-6.92A46.16,46.16,0,0,1,107.23,44.6Zm-6.42-3.38c1.27-.37,2.55-.7,3.87-1,.74,1.11,1.43,2.26,2.07,3.43A46.75,46.75,0,0,0,100.81,41.21Zm29.28,30.56a46.36,46.36,0,0,1-6.92,13.54,47.44,47.44,0,0,0-11-10.41,47.1,47.1,0,0,0,.43-15.21A46,46,0,0,1,127,64.36,46.18,46.18,0,0,1,130.09,71.77Zm-2.17-6.92c1.17.64,2.31,1.33,3.43,2.07-.26,1.31-.59,2.6-1,3.86A46.77,46.77,0,0,0,127.91,64.85Zm2.47,7.9a46.26,46.26,0,0,1,0,26.08,47,47,0,0,0-6.83-13A47,47,0,0,0,130.38,72.75ZM112,112A46.47,46.47,0,0,1,97,111.62a46.92,46.92,0,0,0,4.89-9.68A46.93,46.93,0,0,0,111.62,97,46.48,46.48,0,0,1,112,112Zm-52.81-6.35A47,47,0,0,1,60,97a46.92,46.92,0,0,0,9.68,4.89,46.92,46.92,0,0,0,4.89,9.68,46.47,46.47,0,0,1-14.93.36A47.15,47.15,0,0,1,59.17,105.63Zm.44-46A46.47,46.47,0,0,1,74.55,60a46.92,46.92,0,0,0-4.89,9.68A46.92,46.92,0,0,0,60,74.55a46.47,46.47,0,0,1-.36-14.93ZM112.42,66a47,47,0,0,1-.8,8.59,46.93,46.93,0,0,0-9.68-4.89A46.92,46.92,0,0,0,97,60,46.47,46.47,0,0,1,112,59.61,47.13,47.13,0,0,1,112.42,66ZM98.81,98.81a47,47,0,0,1-5.63,4.8,46.25,46.25,0,0,1-14.77,0A46.55,46.55,0,0,1,68,93.18a46.25,46.25,0,0,1,0-14.77A46.55,46.55,0,0,1,78.41,68a46.25,46.25,0,0,1,14.77,0,46.55,46.55,0,0,1,10.43,10.43,46.25,46.25,0,0,1,0,14.77A47,47,0,0,1,98.81,98.81Zm4.56-4.33a46.05,46.05,0,0,1-1.9,7,46.05,46.05,0,0,1-7,1.9,46.65,46.65,0,0,0,8.89-8.89Zm-11.26,9.87A46,46,0,0,1,85.8,108a46.06,46.06,0,0,1-6.32-3.64,46,46,0,0,0,12.64,0Zm-15-1a46.05,46.05,0,0,1-7-1.9,46.05,46.05,0,0,1-1.9-7,46.64,46.64,0,0,0,8.89,8.89ZM67.23,92.12A46.05,46.05,0,0,1,63.6,85.8a46.05,46.05,0,0,1,3.64-6.32,46,46,0,0,0,0,12.65Zm1-15a46.05,46.05,0,0,1,1.9-7,46.05,46.05,0,0,1,7-1.9,46.64,46.64,0,0,0-8.89,8.89Zm11.26-9.87A46.06,46.06,0,0,1,85.8,63.6a46,46,0,0,1,6.32,3.64,46,46,0,0,0-12.64,0Zm15,1a46.05,46.05,0,0,1,7,1.9,46.05,46.05,0,0,1,1.9,7,46.65,46.65,0,0,0-8.89-8.89Zm9.87,11.26A46.05,46.05,0,0,1,108,85.8a46.05,46.05,0,0,1-3.64,6.32,46,46,0,0,0,0-12.65Zm-.19-1.3a46.64,46.64,0,0,0-2-7.79,46.36,46.36,0,0,1,9.32,4.79,45.94,45.94,0,0,1-3.2,9.92A46.7,46.7,0,0,0,104.17,78.18Zm-3-8.77a46.63,46.63,0,0,0-7.79-2,46.69,46.69,0,0,0-6.92-4.14,45.93,45.93,0,0,1,9.92-3.2A46.36,46.36,0,0,1,101.21,69.4ZM85.8,62.95a46.51,46.51,0,0,0-10.26-3.39A46.84,46.84,0,0,1,85.8,48.79,46.84,46.84,0,0,1,96.06,59.56,46.51,46.51,0,0,0,85.8,62.95Zm-.7.34a46.7,46.7,0,0,0-6.92,4.14,46.63,46.63,0,0,0-7.79,2,46.35,46.35,0,0,1,4.79-9.32A45.93,45.93,0,0,1,85.09,63.28ZM69.4,70.39a46.64,46.64,0,0,0-2,7.79,46.7,46.7,0,0,0-4.14,6.92,45.93,45.93,0,0,1-3.2-9.92A46.35,46.35,0,0,1,69.4,70.39ZM62.95,85.8a46.51,46.51,0,0,0-3.39,10.26A46.84,46.84,0,0,1,48.79,85.8,46.84,46.84,0,0,1,59.56,75.54,46.51,46.51,0,0,0,62.95,85.8Zm.34.7a46.7,46.7,0,0,0,4.14,6.92,46.64,46.64,0,0,0,2,7.79,46.35,46.35,0,0,1-9.32-4.79A45.93,45.93,0,0,1,63.28,86.5Zm7.1,15.69a46.63,46.63,0,0,0,7.79,2,46.69,46.69,0,0,0,6.92,4.14,45.93,45.93,0,0,1-9.92,3.2A46.35,46.35,0,0,1,70.39,102.19Zm15.41,6.46A46.51,46.51,0,0,0,96.06,112,46.84,46.84,0,0,1,85.8,122.8,46.84,46.84,0,0,1,75.54,112,46.51,46.51,0,0,0,85.8,108.65Zm.7-.34a46.68,46.68,0,0,0,6.92-4.14,46.63,46.63,0,0,0,7.79-2,46.36,46.36,0,0,1-4.79,9.32A45.93,45.93,0,0,1,86.5,108.31Zm15.69-7.1a46.64,46.64,0,0,0,2-7.79,46.7,46.7,0,0,0,4.14-6.92,45.94,45.94,0,0,1,3.2,9.92A46.36,46.36,0,0,1,102.19,101.21Zm6.46-15.41A46.51,46.51,0,0,0,112,75.54,46.85,46.85,0,0,1,122.8,85.8,46.85,46.85,0,0,1,112,96.06,46.51,46.51,0,0,0,108.65,85.8Zm3.87-26.72a46.56,46.56,0,0,0-4.38-14,46.79,46.79,0,0,1,18.38,18.38A46.56,46.56,0,0,0,112.52,59.08ZM85.8,48a47,47,0,0,0-13-6.83,46.26,46.26,0,0,1,26.08,0A47,47,0,0,0,85.8,48Zm-26.72,11a46.56,46.56,0,0,0-14,4.38A46.79,46.79,0,0,1,63.46,45.07,46.56,46.56,0,0,0,59.08,59.08ZM48,85.8a47,47,0,0,0-6.83,13,46.26,46.26,0,0,1,0-26.08A47,47,0,0,0,48,85.8Zm11,26.72a46.56,46.56,0,0,0,4.38,14,46.79,46.79,0,0,1-18.38-18.38A46.56,46.56,0,0,0,59.08,112.52Zm26.72,11a47,47,0,0,0,13,6.83,46.26,46.26,0,0,1-26.08,0A47,47,0,0,0,85.8,123.55Zm26.72-11a46.56,46.56,0,0,0,14-4.38,46.79,46.79,0,0,1-18.38,18.38A46.56,46.56,0,0,0,112.52,112.52Zm.07-.61a47.1,47.1,0,0,0-.43-15.21,47.44,47.44,0,0,0,11-10.41,46.36,46.36,0,0,1,6.92,13.54,46.18,46.18,0,0,1-3.09,7.41A46,46,0,0,1,112.59,111.9Zm17.79-11.09c.37,1.27.7,2.55,1,3.86-1.11.74-2.26,1.43-3.43,2.07A46.77,46.77,0,0,0,130.38,100.81Zm.33-1a47.13,47.13,0,0,0,0-28.05q.69-2.2,1.16-4.48a46.78,46.78,0,0,1,15.8,18.51,46.78,46.78,0,0,1-15.8,18.51Q131.4,102,130.72,99.82Zm1.54-42.08a46.5,46.5,0,0,1-.8,8.55q-2-1.29-4-2.37a47.37,47.37,0,0,0-19.76-19.76,46.65,46.65,0,0,0-2.37-4,46.25,46.25,0,0,1,24.22,1.93A46.24,46.24,0,0,1,132.26,57.74Zm-18.41-19a47.08,47.08,0,0,0-8.91.86,47.37,47.37,0,0,0-18.45-16,46.32,46.32,0,0,1,19.13-4.11,47.06,47.06,0,0,1,7.31.58,46.69,46.69,0,0,1,16.31,21.27A46.83,46.83,0,0,0,113.85,38.74Zm-15-5.64a47,47,0,0,1,5.49,6.61q-2.28.47-4.48,1.16a47.13,47.13,0,0,0-28.05,0q-2.2-.69-4.48-1.16A46.78,46.78,0,0,1,85.8,23.92,46.5,46.5,0,0,1,98.81,33.11Zm-26.45-.42a47.55,47.55,0,0,0-5.71,6.91,46.83,46.83,0,0,0-24.32,1.75A46.68,46.68,0,0,1,58.65,20.08,47.06,47.06,0,0,1,66,19.5a46.32,46.32,0,0,1,19.13,4.11A47.11,47.11,0,0,0,72.36,32.69ZM57.74,39.34a46.49,46.49,0,0,1,8.55.8,46.65,46.65,0,0,0-2.37,4A47.37,47.37,0,0,0,44.16,63.92q-2.06,1.08-4,2.37a46.25,46.25,0,0,1,1.93-24.22A46.24,46.24,0,0,1,57.74,39.34ZM33.11,72.78a47,47,0,0,1,6.61-5.49q.47,2.28,1.16,4.48a47.13,47.13,0,0,0,0,28.05q-.69,2.2-1.16,4.48A46.78,46.78,0,0,1,23.92,85.8,46.5,46.5,0,0,1,33.11,72.78Zm6.23,41.07a46.49,46.49,0,0,1,.8-8.55q2,1.29,4,2.37a47.37,47.37,0,0,0,19.76,19.76,46.65,46.65,0,0,0,2.37,4,46.25,46.25,0,0,1-24.22-1.93A46.24,46.24,0,0,1,39.34,113.85Zm18.41,19a47.08,47.08,0,0,0,8.91-.86,47.37,47.37,0,0,0,18.45,16A46.32,46.32,0,0,1,66,152.1a47.06,47.06,0,0,1-7.31-.58,46.68,46.68,0,0,1-16.31-21.27A46.83,46.83,0,0,0,57.74,132.85Zm15,5.64a47,47,0,0,1-5.49-6.61q2.28-.47,4.48-1.16a47.13,47.13,0,0,0,28.05,0q2.2.69,4.48,1.16a46.78,46.78,0,0,1-18.51,15.8A46.5,46.5,0,0,1,72.78,138.49Zm26.45.42a47.54,47.54,0,0,0,5.71-6.91,46.83,46.83,0,0,0,24.32-1.75,46.69,46.69,0,0,1-16.31,21.27,47.06,47.06,0,0,1-7.31.58A46.32,46.32,0,0,1,86.5,148,47.1,47.1,0,0,0,99.23,138.91Zm14.62-6.65a46.49,46.49,0,0,1-8.55-.8,46.65,46.65,0,0,0,2.37-4,47.37,47.37,0,0,0,19.76-19.76q2.06-1.08,4-2.37a46.26,46.26,0,0,1-1.93,24.22A46.24,46.24,0,0,1,113.85,132.26Zm19-18.41a47.08,47.08,0,0,0-.86-8.91A47.37,47.37,0,0,0,148,86.5a46.32,46.32,0,0,1,4.11,19.13,47.06,47.06,0,0,1-.58,7.31,46.69,46.69,0,0,1-21.27,16.31A46.83,46.83,0,0,0,132.85,113.85Zm5.64-80.75a46.12,46.12,0,0,1,12.8,24.23A47.27,47.27,0,0,0,130,41.6a47.27,47.27,0,0,0-15.74-21.3A46.12,46.12,0,0,1,138.49,33.11ZM85.8,11.28a46.19,46.19,0,0,1,26.1,8,47.74,47.74,0,0,0-6.26-.42A46.9,46.9,0,0,0,85.8,23.27,46.9,46.9,0,0,0,66,18.9a47.74,47.74,0,0,0-6.26.42A46.19,46.19,0,0,1,85.8,11.28ZM33.11,33.11A46.12,46.12,0,0,1,57.34,20.3,47.27,47.27,0,0,0,41.6,41.6,47.27,47.27,0,0,0,20.3,57.34,46.12,46.12,0,0,1,33.11,33.11ZM11.28,85.8a46.19,46.19,0,0,1,8-26.1A47.74,47.74,0,0,0,18.9,66,46.9,46.9,0,0,0,23.27,85.8a46.9,46.9,0,0,0-4.37,19.84,47.74,47.74,0,0,0,.42,6.26A46.19,46.19,0,0,1,11.28,85.8Zm21.83,52.69a46.12,46.12,0,0,1-12.8-24.23A47.27,47.27,0,0,0,41.6,130a47.27,47.27,0,0,0,15.74,21.3A46.12,46.12,0,0,1,33.11,138.49ZM85.8,160.31a46.19,46.19,0,0,1-26.1-8,47.74,47.74,0,0,0,6.26.42,46.9,46.9,0,0,0,19.84-4.37,46.9,46.9,0,0,0,19.84,4.37,47.74,47.74,0,0,0,6.26-.42A46.19,46.19,0,0,1,85.8,160.31Zm28.46-9A47.27,47.27,0,0,0,130,130a47.27,47.27,0,0,0,21.29-15.74,46.48,46.48,0,0,1-37,37Z"/><rect class="cls-1" x="7.77" y="64.13" width="155.45" height="42.75"/><path class="cls-2" d="M40.07,87.63v5.68H37.45V77.75H42c2.93,0,4.76,1.71,4.76,4.92s-1.8,5-4.76,5Zm1.56-2.26c1.8,0,2.5-.92,2.5-2.71S43.43,80,41.63,80H40.07v5.37Z"/><path class="cls-2" d="M50.4,86.52v-2c0-4.9,2-7,4.9-7s4.9,2.1,4.9,7v2c0,4.9-2,7-4.9,7S50.4,91.42,50.4,86.52Zm2.62-2v2c0,3.36.74,4.74,2.28,4.74s2.28-1.38,2.28-4.74v-2c0-3.36-.74-4.74-2.28-4.74S53,81.17,53,84.54Z"/><path class="cls-2" d="M67.46,91.06h5.3v2.26H64.84V77.75h2.62Z"/><path class="cls-2" d="M73.85,77.75h2.89l2.35,6.14,2.35-6.14h2.89l-3.93,9.07v6.5H77.77v-6.5Z"/><path class="cls-2" d="M96.9,85.33v1.2c0,5-1.8,7-4.67,7s-4.9-2.1-4.9-7V84.65c0-5,2-7.11,4.9-7.11,2.64,0,4.26,1.76,4.65,5H94.4c-.23-1.8-.88-2.75-2.17-2.75-1.53,0-2.28,1.35-2.28,4.71v2c0,3.36.74,4.71,2.28,4.71s2.08-1.13,2.17-3.63H92.28V85.33Z"/><path class="cls-2" d="M104.15,91.06h5.3v2.26h-7.92V77.75h2.62Z"/><path class="cls-2" d="M112.27,86.52v-2c0-4.9,2-7,4.9-7s4.89,2.1,4.89,7v2c0,4.9-2,7-4.89,7S112.27,91.42,112.27,86.52Zm2.62-2v2c0,3.36.74,4.74,2.28,4.74s2.28-1.38,2.28-4.74v-2c0-3.36-.74-4.74-2.28-4.74S114.89,81.17,114.89,84.54Z"/><path class="cls-2" d="M134.9,77.75V80h-3.5V93.31h-2.62V80h-3.5V77.75Z"/></g></g></svg>