<svg xmlns="http://www.w3.org/2000/svg" xmlns:xlink="http://www.w3.org/1999/xlink" viewBox="0 0 171 171"><defs><style>.cls-1{fill:#121921;}.cls-2{fill:url(#New_Gradient_Swatch_9);}.cls-3{fill:#fff;}.cls-4{fill:url(#New_Gradient_Swatch_7);}.cls-5{fill:url(#linear-gradient);}</style><linearGradient id="New_Gradient_Swatch_9" x1="32.66" y1="32.66" x2="138.78" y2="138.78" gradientUnits="userSpaceOnUse"><stop offset="0" stop-color="#bab2aa"/><stop offset="1" stop-color="#a0968c"/></linearGradient><linearGradient id="New_Gradient_Swatch_7" x1="144.28" y1="18.7" x2="158.02" y2="18.7" gradientUnits="userSpaceOnUse"><stop offset="0" stop-color="#a0968c" stop-opacity="0"/><stop offset="1" stop-color="#a0968c"/></linearGradient><linearGradient id="linear-gradient" x1="146.87" y1="18.7" x2="156.18" y2="18.7" gradientUnits="userSpaceOnUse"><stop offset="0" stop-color="#a0968c"/><stop offset="1" stop-color="#a0968c" stop-opacity="0"/></linearGradient></defs><title>the-changelog-cover-art</title><g id="Layer_2" data-name="Layer 2"><g id="Layer_1-2" data-name="Layer 1"><rect class="cls-1" width="171" height="171"/><path class="cls-2" d="M151.93,58.32h0v0h0L138.83,32.74a.3.3,0,0,0-.13-.13L113.16,19.53h0L85.81,10.7a.29.29,0,0,0-.18,0l-27.3,8.81h0L32.74,32.61a.3.3,0,0,0-.13.13L19.53,58.28h0L10.7,85.63a.3.3,0,0,0,0,.18l8.81,27.3h0v0h0L32.61,138.7a.3.3,0,0,0,.13.13l25.38,13a.29.29,0,0,0,.2.25l27.3,8.81h.18l27.31-8.81a.29.29,0,0,0,.2-.25l25.38-13a.3.3,0,0,0,.13-.13l13.08-25.54h0l8.81-27.3a.3.3,0,0,0,0-.18ZM132,103.75l-.35.41L124,87l-.44-1H147.2ZM38.72,68.55l1.08-1.26L47.88,85.4v0H24.24Zm3.73,60.85,9.79-9.79,6.93-6.93,7.11,18.54ZM66.75,40.69l5.08,12.26,6,14.49-7.92,2.05L65.1,64.68l-5.46-5.46,2-5.29ZM129,42l-9.79,9.79-6.93,6.93-7.11-18.54Zm-27,59.5L104,93.62l4.94,2,2.5,1,.18,6.75.21,8-8-8Zm2.28-8.47L108.38,86h14L111.67,96.15l-2.5-1Zm.26-14.25,17,6.61H108.38Zm-1-.51,0,.05s0,0,0,0l4.32,7.34-4.32,7.34v0l0,0-2.14,8.25-8.25,2.14-.05,0h0l-7.34,4.32-7.34-4.32h0l0,0-8.25-2.14-2.14-8.25,0-.05s0,0,0,0l-4.32-7.34,4.32-7.34v0l0,0,2.14-8.25,8.25-2.14,0,0h0l7.34-4.32,7.34,4.32h0l0,0,8.25,2.14ZM69.91,102,77.83,104l-2,4.94-1,2.5-6.75.18-8,.21,8-8Zm8.47,2.28,7.05,4.15v14L75.29,111.67l1-2.5Zm14.25.26-6.61,17V108.39Zm-32.9,7.94,15.1-.4,10.4,11L66.9,131.16l-5.72-14.93ZM55.21,61.18,59,59.72l.4,15.1-11,10.39L40.29,66.9Zm14.27,8.73-2.05,7.92-4.94-2-2.5-1L59.82,68l-.21-8,8,8Zm-2.28,8.47-4.15,7h-14L59.77,75.29l2.5,1Zm-.26,14.25L49.93,86H63.06ZM95.11,62.27l-2,4.94-7-4.15v-14L96.15,59.77Zm-16.3,4.68,6.61-17V63.06Zm22.72,2.54-7.92-2.05,2-4.94,1-2.5,6.75-.18,8-.21-8,8Zm18.08-17.24,9.79-9.79,1.82,23.83-18.54-7.11ZM111.72,59l-15.1.4-10.4-11,18.31-8.16,5.72,14.93Zm-53,.17L40.22,66.29,42,42.46l9.79,9.79Zm8.67,34.43,2.05,7.92-4.81,4.81-5.46,5.46-5.33-2L40.69,104.7l12.4-5.14Zm-8.67,18.64-6.93,6.93L42,129l-1.82-23.83ZM93.62,104l7.92-2.05,4.81,4.81,5.46,5.46-2,5.33-5.06,13.21-5.14-12.4Zm18.81,7.71-.4-15.1,11-10.4,8.16,18.32-14.93,5.72ZM104,77.83,102,69.91l4.81-4.81,5.46-5.46,5.29,2,13.25,5.08L118.5,71.82ZM85.42,24.24V48.29l-7.2,18.54L69.09,44.78l-2-4.81,1.75-1.5ZM59.18,58.76l-6.93-6.93L42.46,42l23.83-1.82ZM24.24,86H48.29l18.54,7.2-22,9.12-4.84,2-1.82-2.12Zm43,45.62,17.79-7.93.34-.15V147.2L67.69,132ZM86,147.2V123.15l7.2-18.54,9.12,22,2,4.84-2.37,2Zm19.13-16,7.11-18.54,6.93,6.93,9.79,9.79Zm7.53-19,18.54-7.11L129.4,129l-9.79-9.79ZM147.2,85.42H123.15l-18.54-7.2,22.06-9.14,4.81-2,1.78,2.07Zm-34.1-65L129,41.44l-23.88-1.82L112.83,21Zm-8.94,19.42L86.73,47.57l-.71.32V24.24l16.87,14.48ZM20.39,58.34,41.44,42.42,39.62,66.31,21,58.61ZM23.8,86.41l15.76,18.36,0,0L41.44,129,20.11,112.9Zm34.55,64.64L42.42,130l23.88,1.82L58.61,150.4Zm.82-.43L66.85,132,85,147.65l-26.14,3.64Zm45.67-18.79L129,130,112.9,151.33l-26.48-3.68Zm46.23-18.74L130,129l1.82-23.88,18.58,7.69ZM131.93,66.72l-.09-.1L130,42.42l21.33,16.12L147.65,85ZM112.55,20.16l-.27.65-7.69,18.58L86.41,23.8l7-1ZM85,23.8,67,39.27l-.39.33L42.42,41.44,58.54,20.11l24.53,3.41ZM20.16,58.89l.65.27,18.58,7.69L23.8,85l-.42-3Zm131.12,53.66-.65-.27L132,104.59l15.6-18.17,2.15,15.49ZM138.35,33.09l12.44,24.3L139.65,49l-9.78-7.39L114,20.65ZM85.72,11.3l26,8.38L91.05,22.55l-5.33.74-2.85-.4L59.74,19.68ZM33.09,33.09l24.3-12.44L49,31.8l-7.39,9.78L20.65,57.4ZM19.68,59.74l3.47,25,.14,1-3.61,26-8.38-26Zm13.42,78.61L20.65,114l11.15,8.42,9.78,7.39L57.4,150.79ZM85.72,160.3l-26-8.38,26-3.61,26,3.61Zm52.63-21.95L114,150.79l8.42-11.15,7.39-9.78L150.79,114Zm13.42-26.65-1.51-10.83-2.11-15.15,2.13-15.32,1.48-10.67,8.38,26Z"/><rect class="cls-1" x="3.46" y="64.13" width="163.23" height="42.75"/><path class="cls-3" d="M15.48,77.75V80H12V93.31H9.36V80H5.87V77.75Z"/><path class="cls-3" d="M21.46,84.13h4.31V77.75h2.62V93.31H25.76V86.39H21.46v6.93H18.84V77.75h2.62Z"/><path class="cls-3" d="M41,77.75V80h-5.3v4.11h4.74v2.26H35.72v4.67H41v2.26H33.1V77.75Z"/><path class="cls-3" d="M58.07,82.57c-.25-1.89-.93-2.75-2.17-2.75-1.53,0-2.28,1.35-2.28,4.72v2c0,3.32.74,4.72,2.28,4.72,1.29,0,1.89-.86,2.17-2.75h2.48c-.45,3.5-2.05,5-4.65,5-2.89,0-4.9-2.1-4.9-7v-2c0-4.9,2-7,4.9-7,2.5,0,4.22,1.65,4.65,5Z"/><path class="cls-3" d="M67,84.13H71.3V77.75h2.62V93.31H71.3V86.39H67v6.93H64.37V77.75H67Z"/><path class="cls-3" d="M77.19,93.31l4.35-15.57h2.57l4.38,15.57H85.71l-.81-3.23H80.73l-.79,3.23Zm4.13-5.48h3l-1.49-6.14Z"/><path class="cls-3" d="M101.33,77.75V93.31H99L94.4,84.08v9.23H91.78V77.75h2.32l4.6,9.36V77.75Z"/><path class="cls-3" d="M115,85.32v1.2c0,5-1.8,7-4.67,7s-4.9-2.1-4.9-7V84.65c0-5,2-7.11,4.9-7.11,2.64,0,4.26,1.76,4.65,5h-2.48c-.23-1.81-.88-2.75-2.17-2.75-1.53,0-2.28,1.35-2.28,4.72v2c0,3.36.74,4.72,2.28,4.72s2.08-1.13,2.17-3.63h-2.12V85.32Z"/><path class="cls-3" d="M127.14,77.75V80h-5.3v4.11h4.74v2.26h-4.74v4.67h5.3v2.26h-7.92V77.75Z"/><path class="cls-3" d="M133.68,91.06H139v2.26h-7.92V77.75h2.62Z"/><path class="cls-3" d="M141.35,86.52v-2c0-4.9,2-7,4.9-7s4.89,2.1,4.89,7v2c0,4.9-2,7-4.89,7S141.35,91.42,141.35,86.52Zm2.62-2v2c0,3.36.74,4.74,2.28,4.74s2.28-1.38,2.28-4.74v-2c0-3.36-.74-4.74-2.28-4.74S144,81.17,144,84.54Z"/><path class="cls-3" d="M164.34,85.32v1.2c0,5-1.8,7-4.67,7s-4.9-2.1-4.9-7V84.65c0-5,2-7.11,4.9-7.11,2.64,0,4.26,1.76,4.65,5h-2.48c-.23-1.81-.88-2.75-2.17-2.75-1.53,0-2.28,1.35-2.28,4.72v2c0,3.36.74,4.72,2.28,4.72s2.08-1.13,2.17-3.63h-2.12V85.32Z"/><path class="cls-3" d="M153.57,17.8a1.54,1.54,0,1,0-1.24,2.48,1.59,1.59,0,0,0,1.26-.68l.78.73a2.61,2.61,0,1,1-2-4.22,2.57,2.57,0,0,1,2,1Z"/><path class="cls-4" d="M152.29,26.72h-.16a8,8,0,0,1-5.73-2.57,8,8,0,0,1,0-10.89A8,8,0,0,1,158,13a.22.22,0,1,1-.31.31,7.58,7.58,0,0,0-10.93.21,7.61,7.61,0,0,0,0,10.3,7.58,7.58,0,0,0,10.93.21.22.22,0,1,1,.31.31A8,8,0,0,1,152.29,26.72Z"/><path class="cls-5" d="M152.28,24.12h-.18a5.42,5.42,0,0,1,0-10.83,5.43,5.43,0,0,1,4,1.58.22.22,0,0,1-.31.31,5,5,0,0,0-3.7-1.46,5,5,0,0,0,0,10,5,5,0,0,0,3.7-1.46.22.22,0,0,1,.31.31A5.44,5.44,0,0,1,152.28,24.12Z"/></g></g></svg>