<svg xmlns="http://www.w3.org/2000/svg" viewBox="0 0 62.35 20"><defs><style>.cls-1{opacity:1;}.cls-2{fill:#aaa8ac;}</style></defs><title>toptal-logo</title><g id="Layer_2" data-name="Layer 2"><g id="Layer_1-2" data-name="Layer 1"><g class="cls-1"><path class="cls-2" d="M13.65,8.34,5.31,0,3.62,1.69,6.75,4.81,0,11.56,8.34,19.9,10,18.22,6.9,15.09ZM3.74,11.86l5-5,1,1-5,5Z"/><path class="cls-2" d="M19.4,2.42V5h2.78V6.45H19.4V12.2c0,1.32.37,2.07,1.45,2.07A3.64,3.64,0,0,0,22,14.14l.09,1.48a5.28,5.28,0,0,1-1.72.26,2.77,2.77,0,0,1-2.09-.82,4.17,4.17,0,0,1-.75-2.8V6.45H15.85V5H17.5V3Z"/><path class="cls-2" d="M32.6,10.22c0,3.94-2.75,5.66-5.31,5.66-2.86,0-5.11-2.11-5.11-5.49,0-3.55,2.36-5.64,5.29-5.64S32.6,7,32.6,10.22Zm-8.44.11c0,2.34,1.32,4.1,3.22,4.1s3.24-1.74,3.24-4.14c0-1.81-.9-4.07-3.19-4.07S24.16,8.33,24.16,10.33Z"/><path class="cls-2" d="M33.56,8.46c0-1.37,0-2.47-.09-3.48h1.72l.11,1.83h0a4.15,4.15,0,0,1,3.79-2c2.6,0,4.54,2.18,4.54,5.4,0,3.83-2.36,5.73-4.87,5.73a3.74,3.74,0,0,1-3.28-1.67h0V20H33.56Zm1.92,2.84a3,3,0,0,0,3,3.06c2,0,3.24-1.67,3.24-4.12,0-2.11-1.12-3.94-3.17-3.94a3.05,3.05,0,0,0-2.93,2.38,3.15,3.15,0,0,0-.13.77Z"/><path class="cls-2" d="M47.37,2.42V5h2.77V6.45H47.37V12.2c0,1.32.37,2.07,1.45,2.07A3.64,3.64,0,0,0,50,14.14L50,15.62a5.29,5.29,0,0,1-1.72.26,2.77,2.77,0,0,1-2.09-.82,4.16,4.16,0,0,1-.75-2.8V6.45H43.83V5h1.65V3Z"/><path class="cls-2" d="M59,13.08a17.93,17.93,0,0,0,.15,2.56H57.39l-.15-1.34h-.07a4,4,0,0,1-3.26,1.59,3,3,0,0,1-3.26-3.06c0-2.58,2.29-4,6.41-4V8.63a2.18,2.18,0,0,0-2.42-2.44,5.14,5.14,0,0,0-2.8.79l-.44-1.3a6.9,6.9,0,0,1,3.52-.93C58.18,4.76,59,7,59,9.1ZM57.1,10.2c-2.11,0-4.52.33-4.52,2.4a1.7,1.7,0,0,0,1.81,1.85A2.69,2.69,0,0,0,57,12.67,2.19,2.19,0,0,0,57.1,12Z"/><path class="cls-2" d="M60.41,0h1.94V15.64H60.41Z"/></g></g></g></svg>